<svg width="230" height="119" viewBox="0 0 230 119" fill="none" xmlns="http://www.w3.org/2000/svg">
<g clip-path="url(#clip0_167_176)">
<path d="M114.76 118.7C77.8098 118.7 38.5498 114.06 38.5498 105.45C38.5498 96.84 77.8198 92.2 114.76 92.2C151.7 92.2 190.97 96.84 190.97 105.45C190.97 114.06 151.7 118.7 114.76 118.7ZM114.76 94.44C94.7598 94.44 75.9698 95.7 61.8398 97.98C41.3798 101.29 40.7898 105.04 40.7898 105.45C40.7898 105.86 41.3798 109.62 61.8398 112.92C75.9698 115.2 94.7598 116.46 114.76 116.46C134.76 116.46 153.55 115.2 167.68 112.92C188.14 109.61 188.73 105.86 188.73 105.45C188.73 105.04 188.14 101.28 167.68 97.98C153.55 95.7 134.76 94.44 114.76 94.44Z" fill="#AD935C"/>
<path d="M190.98 105.45H188.74C188.74 105.03 188.15 101.28 167.69 97.98C153.56 95.7 134.77 94.44 114.77 94.44C94.7701 94.44 75.9801 95.7 61.8501 97.98C41.3901 101.29 40.8001 105.04 40.8001 105.45H38.5601V74.4499C38.5601 65.8399 77.8301 61.2 114.77 61.2C151.71 61.2 190.98 65.8399 190.98 74.4499V105.45ZM114.76 92.1999C146.48 92.1999 179.92 95.6199 188.74 102.04V74.4499C188.74 74.0299 188.15 70.28 167.69 66.98C153.56 64.7 134.77 63.4399 114.77 63.4399C94.7701 63.4399 75.9801 64.7 61.8501 66.98C41.3901 70.29 40.8001 74.0399 40.8001 74.4499V102.04C49.6201 95.6199 83.0501 92.1999 114.78 92.1999H114.76Z" fill="#AD935C"/>
<path d="M190.98 79.5999H188.74C188.74 79.1799 188.15 75.4299 167.69 72.1299C153.56 69.8499 134.77 68.5899 114.77 68.5899C94.7701 68.5899 75.9801 69.8499 61.8501 72.1299C41.3901 75.4399 40.8001 79.1899 40.8001 79.5999H38.5601V74.4399C38.5601 65.8299 77.8301 61.1899 114.77 61.1899C151.71 61.1899 190.98 65.8299 190.98 74.4399V79.5999ZM114.76 66.3499C146.48 66.3499 179.92 69.7699 188.74 76.1899V74.4399C188.74 74.0199 188.15 70.2699 167.69 66.9699C153.56 64.6899 134.77 63.4299 114.77 63.4299C94.7701 63.4299 75.9801 64.6899 61.8501 66.9699C41.3901 70.2799 40.8001 74.0299 40.8001 74.4399V76.1899C49.6201 69.7699 83.0501 66.3499 114.78 66.3499H114.76Z" fill="#AD935C"/>
<path d="M190.98 105.45H188.74C188.74 105.03 188.15 101.28 167.69 97.98C153.56 95.7 134.77 94.44 114.77 94.44C94.7701 94.44 75.9801 95.7 61.8501 97.98C41.3901 101.29 40.8001 105.04 40.8001 105.45H38.5601V100.29C38.5601 91.68 77.8301 87.04 114.77 87.04C151.71 87.04 190.98 91.68 190.98 100.29V105.45ZM114.76 92.2C146.48 92.2 179.92 95.62 188.74 102.04V100.29C188.74 99.87 188.15 96.12 167.69 92.82C153.56 90.54 134.77 89.28 114.77 89.28C94.7701 89.28 75.9801 90.54 61.8501 92.82C41.3901 96.13 40.8001 99.88 40.8001 100.29V102.04C49.6201 95.62 83.0501 92.2 114.78 92.2H114.76Z" fill="#AD935C"/>
<path d="M61.1098 74.28C57.3998 74.7 53.7998 75.33 50.2098 76.42C46.6398 77.5 43.1898 78.96 39.8798 80.68C39.6098 80.82 39.3998 81.17 39.4198 81.48C39.4398 81.75 39.4698 81.96 39.6898 82.13C40.0298 82.4 40.4098 82.49 40.8098 82.27C47.1398 78.91 54.1698 76.48 61.2398 75.32C61.8298 75.22 61.6998 74.21 61.0998 74.27L61.1098 74.28Z" fill="#AD935C"/>
<path d="M57.7602 78.09C54.4702 78.69 51.2902 79.41 48.1702 80.64C45.1902 81.82 42.0202 83.16 39.4102 85.04C38.5802 85.64 39.2902 86.93 40.2202 86.43C41.6302 85.67 42.9702 84.78 44.3902 84.04C45.8502 83.28 47.3402 82.58 48.8602 81.95C51.8002 80.73 54.8602 79.57 57.9602 78.82C58.4402 78.71 58.2302 78.01 57.7602 78.1V78.09Z" fill="#AD935C"/>
<path d="M52.74 82.29C48.07 83.14 43.69 85.05 39.61 87.46C38.72 87.99 39.54 89.39 40.42 88.85C44.36 86.43 48.6 84.55 52.87 82.8C53.18 82.67 53.07 82.23 52.73 82.29H52.74Z" fill="#AD935C"/>
<path d="M54.0399 85.71C48.6499 86.61 43.3999 88.54 38.8199 91.54C37.9399 92.11 38.7499 93.53 39.6499 92.96C44.1899 90.1 49.1199 88.01 54.3799 86.94C55.1899 86.78 54.8399 85.58 54.0399 85.71Z" fill="#AD935C"/>
<path d="M54.7099 88.96C49.2999 89.81 44.1999 91.71 39.2599 94.03C38.3699 94.45 39.1499 95.8 40.0399 95.36C44.7899 92.97 49.8599 91.3 54.9399 89.77C55.4699 89.61 55.2399 88.88 54.7199 88.96H54.7099Z" fill="#AD935C"/>
<path d="M53.5601 69.9799C52.3501 70.1799 51.1201 70.2799 49.9201 70.5399C48.7301 70.7999 47.5401 71.1099 46.4001 71.5199C44.1201 72.3299 41.9101 73.3399 39.7801 74.4899C38.9101 74.9599 39.7001 76.3199 40.5501 75.8099C42.6101 74.5899 44.7501 73.5899 46.9801 72.7199C49.1601 71.8699 51.4001 70.9399 53.6901 70.4499C54.0001 70.3799 53.8701 69.9299 53.5601 69.9799Z" fill="#AD935C"/>
<path d="M53.3401 95.31C50.7701 95.66 48.0601 96.27 45.6601 97.26C44.4801 97.75 43.3201 98.31 42.2101 98.95C41.6601 99.26 41.1401 99.62 40.5901 99.93C39.9701 100.28 39.3201 100.58 38.8001 101.08C38.0401 101.82 39.0301 103.17 39.9501 102.58C40.4901 102.23 40.9001 101.76 41.3801 101.34C41.8601 100.91 42.4101 100.56 42.9501 100.22C44.0201 99.54 45.1301 98.93 46.2701 98.39C47.4501 97.84 48.6001 97.26 49.8501 96.88C51.0601 96.51 52.3001 96.24 53.5401 96.03C54.0201 95.95 53.8101 95.24 53.3401 95.31Z" fill="#AD935C"/>
<path d="M168.28 75.3301C175.36 76.4901 182.39 78.9201 188.71 82.2801C189.11 82.4901 189.49 82.4001 189.83 82.1401C190.06 81.9601 190.08 81.7601 190.1 81.4901C190.13 81.1901 189.91 80.8301 189.64 80.6901C186.33 78.9701 182.88 77.5101 179.31 76.4301C175.72 75.3401 172.13 74.7101 168.41 74.2901C167.82 74.2201 167.68 75.2401 168.27 75.3401L168.28 75.3301Z" fill="#AD935C"/>
<path d="M171.56 78.81C174.66 79.56 177.72 80.72 180.66 81.94C182.18 82.57 183.67 83.27 185.13 84.03C186.55 84.78 187.89 85.67 189.3 86.42C190.23 86.92 190.94 85.63 190.11 85.03C187.51 83.15 184.33 81.8 181.35 80.63C178.23 79.4 175.05 78.68 171.76 78.08C171.29 77.99 171.08 78.69 171.56 78.8V78.81Z" fill="#AD935C"/>
<path d="M176.65 82.8C180.92 84.55 185.16 86.43 189.1 88.85C189.98 89.39 190.8 87.99 189.91 87.46C185.84 85.06 181.45 83.14 176.78 82.29C176.44 82.23 176.33 82.67 176.64 82.8H176.65Z" fill="#AD935C"/>
<path d="M175.15 86.94C180.42 88 185.35 90.09 189.88 92.96C190.78 93.53 191.59 92.12 190.71 91.54C186.13 88.54 180.88 86.61 175.49 85.71C174.69 85.58 174.34 86.78 175.15 86.94Z" fill="#AD935C"/>
<path d="M174.6 89.77C179.68 91.3 184.75 92.97 189.5 95.36C190.39 95.81 191.17 94.45 190.28 94.03C185.34 91.71 180.24 89.81 174.83 88.96C174.31 88.88 174.08 89.61 174.61 89.77H174.6Z" fill="#AD935C"/>
<path d="M175.84 70.45C178.13 70.94 180.37 71.87 182.55 72.72C184.78 73.58 186.92 74.59 188.98 75.81C189.83 76.31 190.62 74.95 189.75 74.49C187.62 73.34 185.41 72.33 183.13 71.52C181.99 71.11 180.79 70.8 179.61 70.54C178.41 70.28 177.18 70.18 175.97 69.98C175.67 69.93 175.53 70.39 175.84 70.45Z" fill="#AD935C"/>
<path d="M175.99 96.03C177.24 96.24 178.47 96.51 179.68 96.88C180.93 97.26 182.08 97.83 183.26 98.39C184.4 98.93 185.51 99.54 186.58 100.22C187.12 100.57 187.67 100.91 188.15 101.34C188.62 101.76 189.04 102.23 189.58 102.58C190.49 103.17 191.51 101.83 190.73 101.08C190.24 100.61 189.64 100.31 189.05 99.98C188.5 99.68 187.97 99.32 187.43 99.01C186.28 98.35 185.1 97.77 183.87 97.26C181.47 96.26 178.76 95.66 176.19 95.31C175.72 95.25 175.51 95.95 175.99 96.03Z" fill="#AD935C"/>
<path d="M114.21 13.98C110.84 22.77 104.37 31.03 95.82 35.27C87.21 39.54 76.91 39.28 68.25 35.27C63.23 32.95 58.54 29.55 55.16 25.15C54.36 24.11 52.57 25.14 53.38 26.19C56.61 30.4 60.43 33.99 65.11 36.53C69.63 38.98 74.78 40.5 79.93 40.7C89.98 41.08 100.03 36.54 106.88 29.26C110.92 24.97 113.79 19.99 115.32 14.3C115.52 13.57 114.47 13.31 114.21 13.99V13.98Z" fill="#AD935C"/>
<path d="M53.3199 26.33C54.6899 30.67 55.7199 35.21 54.6599 39.74C53.6699 43.96 51.1799 47.64 47.0399 49.24C43.3799 50.66 39.3199 50.6 35.4699 50.2C31.2899 49.76 27.1699 48.49 23.2699 46.99C18.5499 45.17 14.0799 43.03 9.65988 40.59C8.55988 39.98 7.56988 41.67 8.66988 42.28C17.1199 46.94 25.4099 52.09 35.2299 53.06C39.4599 53.48 43.9599 52.93 47.7399 50.89C51.4099 48.9 53.9999 45.51 55.2599 41.57C56.8599 36.55 56.4099 30.88 54.8099 25.92C54.5099 24.98 53.0299 25.38 53.3299 26.33H53.3199Z" fill="#AD935C"/>
<path d="M8.80004 41.84C14.22 46.89 19.49 52.1 24.45 57.61C29.44 63.17 34.57 68.94 38.61 75.24C39.49 76.61 41.49 75.14 40.41 73.85C35.54 68.09 31.03 62.07 25.91 56.51C20.84 50.99 15.53 45.69 9.87004 40.78C9.15004 40.15 8.09004 41.18 8.81004 41.84H8.80004Z" fill="#AD935C"/>
<path d="M114.21 14.29C116.9 24.29 123.98 32.35 133.16 37C142.46 41.71 153.11 41.81 162.56 37.46C168.04 34.94 172.5 30.95 176.15 26.19C176.96 25.14 175.17 24.11 174.37 25.15C168.47 32.85 158.81 37.67 149.19 38.32C139.48 38.98 130.63 34.86 124 27.9C120.25 23.96 117.26 19.06 115.32 13.98C115.06 13.3 114.01 13.55 114.21 14.29Z" fill="#AD935C"/>
<path d="M174.73 25.92C172.08 34.12 172.73 44.58 180.31 49.97C187.84 55.31 198.41 53.23 206.3 49.93C211.35 47.82 216.08 44.92 220.86 42.28C221.96 41.67 220.98 39.98 219.87 40.59C212.39 44.72 204.35 48.54 195.85 49.96C191.97 50.61 187.76 50.78 183.94 49.72C179.75 48.56 176.77 45.6 175.37 41.5C173.64 36.43 174.64 31.29 176.21 26.33C176.51 25.38 175.03 24.98 174.73 25.92Z" fill="#AD935C"/>
<path d="M219.67 40.77C214.01 45.68 208.7 50.98 203.63 56.5C198.52 62.07 194.01 68.09 189.13 73.84C188.06 75.1 190.03 76.62 190.93 75.23C194.97 68.94 200.1 63.16 205.09 57.6C210.04 52.09 215.31 46.88 220.74 41.83C221.45 41.17 220.4 40.14 219.68 40.77H219.67Z" fill="#AD935C"/>
<path d="M39.6001 68.83C42.2101 67.94 44.7701 66.93 47.3801 66.05C50.0001 65.17 52.6501 64.39 55.3301 63.73C60.7301 62.39 66.2201 61.49 71.7601 61.03C74.8601 60.78 77.9701 60.64 81.0701 60.48C81.4701 60.46 81.4601 59.9 81.0701 59.87C75.5101 59.42 69.9101 59.88 64.4001 60.71C58.8501 61.54 53.3801 62.84 48.0501 64.6C45.0601 65.59 42.0901 66.68 39.3201 68.16C38.9601 68.35 39.2101 68.96 39.6001 68.82V68.83Z" fill="#AD935C"/>
<path d="M54.93 60.8499C65.98 58.4799 77.26 57.1399 88.57 56.9599C91.77 56.9099 95.01 57.1799 98.19 56.9299C98.51 56.8999 98.64 56.3799 98.27 56.3199C95.49 55.8699 92.6 55.9799 89.78 56.0099C86.93 56.0399 84.09 56.1399 81.25 56.3099C75.58 56.6599 69.91 57.2899 64.3 58.2499C61.1 58.7899 57.91 59.4699 54.75 60.2199C54.34 60.3199 54.51 60.9399 54.92 60.8499H54.93Z" fill="#AD935C"/>
<path d="M76.52 55.86C81.42 55.55 86.34 55.32 91.25 55.22C93.69 55.17 96.12 55.15 98.56 55.18C101.04 55.21 103.53 55.37 106 55.16C106.29 55.14 106.41 54.67 106.07 54.61C103.68 54.21 101.25 54.22 98.83 54.19C96.35 54.17 93.87 54.19 91.39 54.24C86.42 54.35 81.47 54.67 76.53 55.23C76.14 55.27 76.12 55.88 76.53 55.86H76.52Z" fill="#AD935C"/>
<path d="M60.0598 36.18C59.6398 36.48 59.2198 36.78 58.7998 37.08C58.5898 37.23 58.3698 37.38 58.1698 37.54C57.9598 37.71 57.7498 37.9 57.6498 38.16C57.5998 38.28 57.7198 38.42 57.8398 38.41C58.0998 38.4 58.3398 38.27 58.5598 38.13C58.7698 38 58.9798 37.84 59.1798 37.69C59.5898 37.4 60.0098 37.1 60.4198 36.81C60.5798 36.69 60.6598 36.49 60.5498 36.3C60.4598 36.14 60.2098 36.05 60.0398 36.17L60.0598 36.18Z" fill="#AD935C"/>
<path d="M61.47 37.01C61.01 37.36 60.55 37.71 60.09 38.05C59.87 38.22 59.64 38.39 59.42 38.56C59.3 38.65 59.19 38.73 59.07 38.82C59 38.88 58.91 38.93 58.86 39C58.82 39.05 58.8 39.1 58.79 39.16C58.79 39.2 58.79 39.26 58.79 39.29C58.76 39.39 58.85 39.53 58.96 39.52C59.04 39.52 59.12 39.55 59.21 39.52C59.3 39.49 59.38 39.42 59.46 39.35C59.57 39.25 59.67 39.15 59.78 39.06C59.99 38.86 60.21 38.67 60.42 38.47C60.85 38.08 61.27 37.69 61.7 37.29C61.85 37.15 61.64 36.86 61.47 37V37.01Z" fill="#AD935C"/>
<path d="M61.6201 38.64C60.8601 39.14 60.1001 39.65 59.3401 40.15C58.9701 40.4 58.5901 40.64 58.2201 40.89C57.8701 41.12 57.3401 41.35 57.1801 41.75C57.1101 41.93 57.2901 42.12 57.4601 42.12C57.7001 42.12 57.8801 41.98 58.0701 41.84C58.2601 41.71 58.4501 41.57 58.6401 41.44C58.9901 41.19 59.3501 40.94 59.7001 40.69C60.4301 40.17 61.1701 39.65 61.9001 39.14C62.2001 38.93 61.9201 38.44 61.6101 38.64H61.6201Z" fill="#AD935C"/>
<path d="M62.5699 40.06L58.9299 42.22C58.3199 42.58 57.7099 42.94 57.1099 43.3C56.8299 43.47 56.5499 43.64 56.2699 43.81C55.9699 43.99 55.5999 44.16 55.3799 44.44C55.1499 44.73 55.3499 45.17 55.7499 45.08C56.0999 45 56.3999 44.74 56.6899 44.54C56.9599 44.36 57.2399 44.18 57.5099 43.99C58.0899 43.59 58.6799 43.19 59.2599 42.79C60.4299 41.99 61.5899 41.19 62.7599 40.39C62.9599 40.25 62.7799 39.94 62.5699 40.07V40.06Z" fill="#AD935C"/>
<path d="M61.6299 42.98C59.8699 43.91 58.0899 44.82 56.3199 45.73C55.4299 46.19 54.5599 46.66 53.6799 47.13C53.2699 47.35 52.8599 47.56 52.4599 47.8C52.0899 48.02 51.7099 48.17 51.5599 48.59C51.5099 48.72 51.6099 48.89 51.7499 48.92C52.1799 49.02 52.5399 48.76 52.9199 48.58C53.3399 48.37 53.7399 48.14 54.1499 47.92C55.0199 47.44 55.8899 46.96 56.7599 46.47C58.4899 45.48 60.2099 44.49 61.9399 43.51C62.2799 43.32 61.9799 42.81 61.6399 42.99L61.6299 42.98Z" fill="#AD935C"/>
<path d="M59.7401 46.55C58.3101 47.26 56.8701 47.97 55.4401 48.69C54.7201 49.05 54.0201 49.42 53.3101 49.79C52.9801 49.96 52.6501 50.13 52.3101 50.3C51.9801 50.47 51.6801 50.6 51.5401 50.96C51.4901 51.1 51.6001 51.28 51.7401 51.31C52.1101 51.4 52.4101 51.19 52.7301 51.02C53.0601 50.84 53.3901 50.66 53.7101 50.49C54.4101 50.11 55.1201 49.73 55.8101 49.34C57.2001 48.56 58.5901 47.77 59.9801 46.98C60.2601 46.82 60.0101 46.42 59.7301 46.56L59.7401 46.55Z" fill="#AD935C"/>
<path d="M80.4302 43.01C88.4302 43.69 96.6302 41.28 103.37 37.01C105.31 35.78 107.1 34.38 108.66 32.68C108.89 32.43 108.58 31.96 108.28 32.19C105.17 34.56 101.99 36.83 98.4402 38.5C94.8902 40.17 91.1102 41.26 87.2402 41.85C85.0002 42.2 82.7002 42.35 80.4402 42.36C80.0202 42.36 80.0302 42.97 80.4402 43.01H80.4302Z" fill="#AD935C"/>
<path d="M98.52 41.65C100.34 41.01 102.12 40.21 103.76 39.19C104.57 38.69 105.36 38.14 106.12 37.55C106.86 36.97 107.67 36.35 108.14 35.52C108.3 35.25 107.99 34.96 107.72 35.1C106.93 35.51 106.28 36.16 105.59 36.71C104.85 37.31 104.09 37.87 103.29 38.4C101.72 39.43 100.08 40.34 98.35 41.07C98.01 41.21 98.14 41.77 98.51 41.64L98.52 41.65Z" fill="#AD935C"/>
<path d="M105.1 40.7501C105.64 40.3901 106.18 40.0201 106.72 39.6601C106.99 39.4801 107.25 39.31 107.51 39.12C107.79 38.91 108.11 38.7001 108.21 38.3401C108.26 38.1601 108.12 38.0101 107.95 38.0001C107.61 37.9801 107.31 38.2001 107.05 38.3801C106.79 38.5601 106.53 38.76 106.28 38.96C105.77 39.35 105.25 39.74 104.74 40.12C104.58 40.24 104.5 40.43 104.61 40.62C104.7 40.78 104.94 40.8601 105.11 40.7501H105.1Z" fill="#AD935C"/>
<path d="M107.51 42.3C107.66 42.19 107.81 42.07 107.96 41.96C108 41.93 108.03 41.9 108.07 41.88C108.11 41.85 108.15 41.82 108.19 41.79C108.22 41.76 108.25 41.71 108.28 41.67C108.31 41.63 108.34 41.6 108.36 41.56C108.39 41.51 108.41 41.44 108.43 41.39C108.49 41.24 108.34 41.06 108.19 41.07C108.13 41.07 108.07 41.07 108.01 41.09C107.97 41.1 107.93 41.12 107.89 41.13C107.82 41.15 107.75 41.18 107.7 41.22C107.66 41.25 107.62 41.28 107.58 41.31C107.43 41.42 107.28 41.53 107.13 41.64C107.05 41.7 106.98 41.77 106.95 41.87C106.92 41.96 106.94 42.09 106.99 42.17C107.04 42.25 107.12 42.33 107.22 42.35C107.32 42.37 107.44 42.37 107.52 42.31L107.51 42.3Z" fill="#AD935C"/>
<path d="M25.6098 53.11C31.4998 56.22 39.0298 57.25 45.3698 54.96C45.7198 54.83 45.5798 54.34 45.2198 54.4C42.0198 54.98 38.7398 55.31 35.4898 55.01C32.2198 54.71 28.9698 53.82 25.9798 52.46C25.5498 52.27 25.1798 52.87 25.6098 53.1V53.11Z" fill="#AD935C"/>
<path d="M34.6101 57.4001C38.9201 58.4101 43.3801 58.2301 47.6301 57.0001C48.2301 56.8301 47.9801 55.8801 47.3701 56.0601C43.2901 57.2201 38.9801 57.4001 34.8001 56.7201C34.3501 56.6501 34.1501 57.3001 34.6101 57.4101V57.4001Z" fill="#AD935C"/>
<path d="M44.0198 59.24C45.7398 59.03 47.4298 58.67 49.0998 58.19C50.7798 57.71 52.3898 57.13 53.8898 56.25C54.1298 56.11 53.9698 55.7 53.6898 55.79C52.0798 56.32 50.4998 56.93 48.8798 57.42C47.2498 57.91 45.5998 58.27 43.9298 58.58C43.5598 58.65 43.6398 59.29 44.0198 59.24Z" fill="#AD935C"/>
<path d="M34.4101 59.89L31.9001 60.8C31.0601 61.1 30.21 61.36 29.38 61.68C29.15 61.77 29.0001 61.98 29.0701 62.23C29.1301 62.45 29.4001 62.63 29.6201 62.54C30.4701 62.21 31.28 61.81 32.12 61.45C32.95 61.1 33.79 60.74 34.62 60.39C34.9 60.27 34.7001 59.78 34.4101 59.89Z" fill="#AD935C"/>
<path d="M34.5899 60.85C33.9599 61.1 33.3399 61.35 32.7099 61.6C32.3799 61.73 32.0599 61.87 31.7399 62.01C31.4199 62.15 30.9499 62.27 30.8799 62.66C30.8499 62.83 30.8999 62.98 31.0499 63.07C31.4099 63.3 31.8399 63.02 32.1699 62.88C32.4699 62.75 32.7799 62.62 33.0799 62.47C33.6899 62.18 34.2999 61.89 34.9099 61.6C35.3299 61.4 35.0299 60.68 34.5899 60.85Z" fill="#AD935C"/>
<path d="M35.0502 62.6899C34.4902 62.9099 33.9402 63.1199 33.3802 63.3299C33.1002 63.4299 32.8202 63.5399 32.5402 63.6399C32.3802 63.6999 32.2002 63.7499 32.0502 63.8399C31.8602 63.9499 31.7202 64.1699 31.8102 64.3899C31.9002 64.6099 32.1602 64.6599 32.3702 64.5999C32.5302 64.5499 32.6802 64.4699 32.8202 64.3999C33.0902 64.2699 33.3602 64.1399 33.6202 64.0099C34.1702 63.7399 34.7202 63.4799 35.2602 63.2199C35.5502 63.0799 35.3402 62.5799 35.0402 62.6999L35.0502 62.6899Z" fill="#AD935C"/>
<path d="M35.3798 64.17C34.9998 64.37 34.6198 64.57 34.2398 64.76C34.0498 64.86 33.8598 64.95 33.6698 65.06C33.5798 65.11 33.4898 65.15 33.4098 65.21C33.3398 65.25 33.2698 65.3 33.2098 65.36C33.1298 65.44 33.0998 65.53 33.0698 65.63C33.0198 65.75 33.0698 65.9 33.1498 66C33.2398 66.11 33.3398 66.15 33.4798 66.17C33.3798 66.16 33.4098 66.17 33.5498 66.17C33.6098 66.17 33.6598 66.17 33.7198 66.14C33.7998 66.11 33.8798 66.07 33.9498 66.03C34.0398 65.98 34.1198 65.92 34.1998 65.87C34.3798 65.76 34.5398 65.64 34.7098 65.52C35.0498 65.27 35.3998 65.03 35.7498 64.8C35.9098 64.7 35.9898 64.47 35.8798 64.3C35.7698 64.13 35.5598 64.07 35.3798 64.17Z" fill="#AD935C"/>
<path d="M36.35 65.7C35.91 65.83 35.47 65.94 35.03 66.05C34.81 66.1 34.59 66.16 34.38 66.21C34.09 66.28 33.73 66.34 33.59 66.63C33.48 66.85 33.52 67.16 33.76 67.29C34.1 67.46 34.39 67.31 34.7 67.17C34.91 67.08 35.12 66.99 35.33 66.89C35.73 66.71 36.13 66.54 36.54 66.38C36.72 66.31 36.84 66.14 36.79 65.94C36.74 65.76 36.54 65.64 36.35 65.69V65.7Z" fill="#AD935C"/>
<path d="M68.3701 51.34C72.8601 50.59 77.3801 49.89 81.9001 49.37C86.3801 48.85 90.9001 48.64 95.3801 48.1C95.7901 48.05 95.8201 47.45 95.3801 47.44C90.7901 47.26 86.1801 47.79 81.6301 48.37C77.1101 48.94 72.6401 49.7 68.2001 50.76C67.8101 50.85 67.9801 51.41 68.3601 51.35L68.3701 51.34Z" fill="#AD935C"/>
<path d="M190.21 68.17C185.34 65.56 179.86 63.93 174.52 62.59C169.12 61.23 163.59 60.34 158.03 59.92C154.83 59.68 151.66 59.63 148.46 59.88C148.07 59.91 148.06 60.47 148.46 60.49C154.01 60.76 159.57 61.04 165.07 61.89C170.53 62.73 175.92 64.02 181.17 65.73C184.12 66.69 187 67.84 189.93 68.83C190.32 68.96 190.57 68.36 190.21 68.17Z" fill="#AD935C"/>
<path d="M174.78 60.22C163.66 57.59 152.26 56.2 140.83 56.02C137.67 55.97 134.39 55.81 131.26 56.32C130.89 56.38 131.02 56.9 131.34 56.93C134.12 57.15 136.95 56.93 139.74 56.95C142.59 56.97 145.43 57.07 148.27 57.23C153.92 57.56 159.54 58.2 165.12 59.09C168.29 59.6 171.45 60.17 174.59 60.84C175 60.93 175.18 60.31 174.76 60.21L174.78 60.22Z" fill="#AD935C"/>
<path d="M153.01 55.23C148.07 54.68 143.12 54.36 138.15 54.24C135.67 54.18 133.19 54.17 130.71 54.19C128.29 54.21 125.86 54.2 123.47 54.61C123.14 54.67 123.25 55.13 123.54 55.16C126.01 55.37 128.5 55.21 130.98 55.18C133.42 55.15 135.85 55.17 138.29 55.22C143.2 55.33 148.11 55.56 153.02 55.86C153.43 55.89 153.41 55.28 153.02 55.23H153.01Z" fill="#AD935C"/>
<path d="M169.09 36.82C169.5 37.11 169.92 37.41 170.33 37.7C170.54 37.85 170.74 38.01 170.95 38.14C171.17 38.27 171.41 38.4 171.67 38.42C171.79 38.42 171.91 38.29 171.86 38.17C171.76 37.93 171.58 37.75 171.38 37.58C171.17 37.4 170.93 37.25 170.71 37.09C170.29 36.79 169.87 36.49 169.45 36.19C169.29 36.08 169.03 36.16 168.94 36.32C168.84 36.51 168.9 36.71 169.07 36.83L169.09 36.82Z" fill="#AD935C"/>
<path d="M167.83 37.31C168.26 37.7 168.68 38.09 169.11 38.49C169.32 38.68 169.52 38.87 169.73 39.06C169.84 39.16 169.94 39.26 170.05 39.35C170.12 39.41 170.19 39.48 170.28 39.52C170.38 39.56 170.46 39.52 170.57 39.52C170.69 39.53 170.77 39.39 170.74 39.29C170.74 39.26 170.74 39.23 170.74 39.21C170.74 39.15 170.72 39.09 170.69 39.04C170.64 38.95 170.55 38.9 170.47 38.84C170.36 38.75 170.24 38.67 170.12 38.58L169.43 38.06C168.97 37.71 168.51 37.36 168.05 37.02C167.88 36.89 167.67 37.17 167.82 37.31H167.83Z" fill="#AD935C"/>
<path d="M167.61 39.1399C168.34 39.6599 169.08 40.1799 169.81 40.6899C170.16 40.9399 170.52 41.1899 170.87 41.4399C171.06 41.5699 171.25 41.7099 171.44 41.8399C171.63 41.9699 171.81 42.1199 172.05 42.1199C172.22 42.1199 172.41 41.9299 172.33 41.7499C172.17 41.3499 171.64 41.1199 171.29 40.8899C170.92 40.6399 170.54 40.3999 170.17 40.1499C169.41 39.6499 168.65 39.1499 167.89 38.6399C167.58 38.4299 167.3 38.9299 167.6 39.1399H167.61Z" fill="#AD935C"/>
<path d="M166.77 40.39C167.94 41.19 169.1 41.99 170.27 42.79C170.85 43.19 171.44 43.59 172.02 43.99C172.29 44.18 172.57 44.36 172.84 44.54C173.14 44.74 173.43 45 173.78 45.08C174.18 45.17 174.38 44.73 174.15 44.44C173.93 44.16 173.56 44 173.26 43.81C172.98 43.64 172.7 43.46 172.42 43.3C171.81 42.94 171.21 42.58 170.6 42.22C169.39 41.5 168.17 40.78 166.96 40.06C166.75 39.94 166.57 40.25 166.77 40.38V40.39Z" fill="#AD935C"/>
<path d="M167.6 43.5C169.33 44.48 171.06 45.47 172.78 46.46C173.64 46.96 174.52 47.43 175.39 47.91C175.8 48.14 176.2 48.36 176.62 48.57C177 48.76 177.36 49.01 177.79 48.91C177.92 48.88 178.02 48.71 177.98 48.58C177.83 48.16 177.45 48.01 177.08 47.79C176.68 47.55 176.27 47.34 175.86 47.12C174.98 46.65 174.11 46.18 173.22 45.72C171.45 44.81 169.68 43.9 167.91 42.97C167.57 42.79 167.27 43.3 167.61 43.49L167.6 43.5Z" fill="#AD935C"/>
<path d="M169.54 46.9801C170.93 47.7701 172.32 48.5601 173.71 49.3401C174.41 49.7301 175.11 50.1101 175.81 50.4901C176.14 50.6701 176.46 50.8501 176.79 51.0201C177.11 51.1901 177.41 51.4001 177.78 51.3101C177.92 51.2801 178.03 51.1001 177.98 50.9601C177.84 50.6001 177.54 50.4701 177.21 50.3001C176.88 50.1301 176.55 49.9601 176.21 49.7901C175.5 49.4201 174.79 49.0501 174.08 48.6901C172.65 47.9701 171.21 47.2701 169.78 46.5501C169.5 46.4101 169.26 46.8201 169.53 46.9701L169.54 46.9801Z" fill="#AD935C"/>
<path d="M149.1 42.37C141.2 42.31 133.4 40.35 126.71 36.09C124.83 34.89 123.03 33.55 121.26 32.2C120.97 31.98 120.65 32.44 120.88 32.69C123.61 35.66 127.13 37.84 130.78 39.52C134.38 41.18 138.23 42.35 142.17 42.85C144.48 43.15 146.79 43.21 149.11 43.01C149.52 42.98 149.53 42.37 149.11 42.36L149.1 42.37Z" fill="#AD935C"/>
<path d="M131.17 41.08C129.44 40.35 127.8 39.44 126.23 38.41C125.46 37.9 124.72 37.35 123.99 36.77C123.28 36.2 122.61 35.53 121.8 35.11C121.53 34.97 121.23 35.25 121.38 35.53C121.84 36.34 122.63 36.95 123.35 37.52C124.12 38.12 124.93 38.68 125.76 39.2C127.4 40.22 129.18 41.02 131 41.66C131.37 41.79 131.5 41.23 131.16 41.09L131.17 41.08Z" fill="#AD935C"/>
<path d="M124.79 40.12C124.28 39.73 123.76 39.34 123.25 38.96C122.99 38.77 122.74 38.57 122.48 38.38C122.21 38.19 121.92 37.98 121.58 38C121.41 38 121.27 38.17 121.32 38.34C121.42 38.68 121.72 38.9 122 39.1C122.27 39.29 122.54 39.48 122.82 39.66C123.36 40.02 123.9 40.39 124.44 40.75C124.6 40.86 124.84 40.78 124.94 40.62C125.05 40.43 124.97 40.24 124.81 40.12H124.79Z" fill="#AD935C"/>
<path d="M122.41 41.6299C122.26 41.5199 122.11 41.4099 121.96 41.2999L121.85 41.2199C121.79 41.1799 121.72 41.1499 121.66 41.1299C121.62 41.1199 121.58 41.0999 121.54 41.0899C121.48 41.0699 121.41 41.0699 121.35 41.0699C121.19 41.0699 121.05 41.2399 121.11 41.3899C121.13 41.4399 121.15 41.5099 121.18 41.5599C121.2 41.5999 121.23 41.6299 121.26 41.6699C121.28 41.6999 121.3 41.7299 121.32 41.7499C121.36 41.7999 121.41 41.8399 121.46 41.8799C121.5 41.9099 121.54 41.9399 121.58 41.9699C121.73 42.0799 121.88 42.1999 122.03 42.3099C122.11 42.3699 122.24 42.3699 122.33 42.3499C122.42 42.3299 122.52 42.2599 122.56 42.1699C122.61 42.0799 122.63 41.9699 122.6 41.8699C122.59 41.8399 122.57 41.8099 122.56 41.7799C122.53 41.7199 122.48 41.6799 122.42 41.6399L122.41 41.6299Z" fill="#AD935C"/>
<path d="M203.54 52.47C200.55 53.83 197.3 54.71 194.03 55.02C190.78 55.32 187.5 54.99 184.3 54.41C183.94 54.34 183.8 54.84 184.15 54.97C190.49 57.26 198.03 56.23 203.91 53.12C204.34 52.89 203.96 52.28 203.54 52.48V52.47Z" fill="#AD935C"/>
<path d="M194.73 56.71C190.55 57.4 186.24 57.21 182.16 56.05C181.55 55.88 181.3 56.82 181.9 56.99C186.15 58.22 190.61 58.41 194.92 57.39C195.38 57.28 195.18 56.63 194.73 56.7V56.71Z" fill="#AD935C"/>
<path d="M185.6 58.58C183.93 58.27 182.27 57.91 180.65 57.42C179.03 56.93 177.45 56.31 175.84 55.79C175.56 55.7 175.4 56.11 175.64 56.25C177.15 57.13 178.76 57.71 180.43 58.19C182.1 58.67 183.79 59.03 185.51 59.24C185.88 59.28 185.97 58.65 185.6 58.58Z" fill="#AD935C"/>
<path d="M194.91 60.3899C195.74 60.7399 196.58 61.1 197.41 61.45C198.25 61.81 199.07 62.21 199.91 62.54C200.14 62.63 200.4 62.4399 200.46 62.2299C200.53 61.9699 200.37 61.77 200.15 61.68C199.32 61.35 198.47 61.0999 197.63 60.7999C196.79 60.4999 195.96 60.1999 195.12 59.8899C194.83 59.7899 194.62 60.2699 194.91 60.3899Z" fill="#AD935C"/>
<path d="M194.62 61.6C195.23 61.89 195.84 62.18 196.45 62.47C196.75 62.61 197.06 62.74 197.36 62.88C197.7 63.03 198.12 63.3 198.48 63.07C198.63 62.98 198.68 62.83 198.65 62.66C198.58 62.27 198.1 62.14 197.79 62.01C197.47 61.87 197.15 61.73 196.82 61.6C196.19 61.35 195.57 61.1 194.94 60.85C194.51 60.68 194.2 61.4 194.62 61.6Z" fill="#AD935C"/>
<path d="M194.26 63.2101C194.8 63.4601 195.34 63.7201 195.88 63.9801L196.68 64.3701C196.84 64.4501 196.99 64.5401 197.16 64.5901C197.37 64.6501 197.62 64.5901 197.72 64.3801C197.81 64.1601 197.68 63.9401 197.48 63.8301C197.34 63.7501 197.17 63.7001 197.02 63.6501C196.74 63.5501 196.46 63.4401 196.18 63.3401C195.61 63.1301 195.04 62.9101 194.48 62.6901C194.18 62.5701 193.97 63.0701 194.26 63.2101Z" fill="#AD935C"/>
<path d="M193.79 64.8C194.14 65.03 194.49 65.27 194.83 65.52C195 65.64 195.17 65.76 195.34 65.87C195.42 65.92 195.51 65.98 195.59 66.03C195.66 66.07 195.74 66.11 195.82 66.14C195.87 66.17 195.93 66.18 195.99 66.17C196.13 66.15 196.16 66.15 196.06 66.17C196.2 66.15 196.3 66.12 196.39 66C196.47 65.9 196.51 65.75 196.47 65.63C196.43 65.53 196.4 65.44 196.33 65.36C196.27 65.3 196.2 65.25 196.13 65.21C196.05 65.16 195.96 65.11 195.87 65.06C195.68 64.95 195.49 64.86 195.3 64.76C194.92 64.57 194.53 64.37 194.16 64.17C193.99 64.08 193.76 64.12 193.66 64.3C193.56 64.48 193.62 64.68 193.79 64.8Z" fill="#AD935C"/>
<path d="M192.99 66.38C193.4 66.54 193.8 66.71 194.2 66.89C194.4 66.98 194.6 67.07 194.81 67.16C195.13 67.3 195.43 67.46 195.78 67.29C196.02 67.17 196.06 66.85 195.95 66.63C195.81 66.34 195.46 66.28 195.18 66.21C194.95 66.15 194.73 66.1 194.5 66.04C194.06 65.93 193.62 65.82 193.18 65.69C193 65.64 192.8 65.75 192.74 65.94C192.69 66.14 192.81 66.31 192.99 66.38Z" fill="#AD935C"/>
<path d="M161.33 50.75C156.9 49.69 152.42 48.93 147.9 48.36C143.35 47.78 138.74 47.25 134.15 47.43C133.71 47.45 133.74 48.04 134.15 48.09C138.63 48.63 143.14 48.85 147.63 49.36C152.16 49.88 156.67 50.58 161.16 51.33C161.54 51.39 161.71 50.83 161.32 50.74L161.33 50.75Z" fill="#AD935C"/>
<path d="M114.67 21.81C110.51 21.81 107.13 18.43 107.13 14.27C107.13 10.11 110.51 6.72998 114.67 6.72998C118.83 6.72998 122.21 10.11 122.21 14.27C122.21 18.43 118.83 21.81 114.67 21.81ZM114.67 8.39998C111.44 8.39998 108.81 11.03 108.81 14.26C108.81 17.49 111.44 20.12 114.67 20.12C117.9 20.12 120.53 17.49 120.53 14.26C120.53 11.03 117.9 8.39998 114.67 8.39998Z" fill="#AD935C"/>
<path d="M114.67 9.98C111.92 9.98 109.68 7.74 109.68 4.99C109.68 2.24 111.92 0 114.67 0C117.42 0 119.66 2.24 119.66 4.99C119.66 7.74 117.42 9.98 114.67 9.98ZM114.67 1.68C112.84 1.68 111.36 3.17 111.36 4.99C111.36 6.81 112.85 8.3 114.67 8.3C116.49 8.3 117.98 6.81 117.98 4.99C117.98 3.17 116.49 1.68 114.67 1.68Z" fill="#AD935C"/>
<path d="M111.51 10.69C110.57 11.66 109.92 12.86 109.66 14.19C109.54 14.81 109.45 15.53 109.69 16.13C109.97 16.82 110.68 17.13 111.37 16.85C112.01 16.59 112.46 16.02 112.81 15.44C113.17 14.86 113.45 14.25 113.64 13.6C113.83 12.94 113.98 12.17 113.8 11.5C113.63 10.87 113.1 10.29 112.41 10.27C111.66 10.24 111.23 10.95 110.95 11.54C110.82 11.82 110.73 12.11 110.59 12.38C110.47 12.62 110.26 12.96 110.03 13.11C109.87 13.21 109.92 13.51 110.13 13.49C110.33 13.47 110.55 13.44 110.72 13.33C110.91 13.22 111.05 12.99 111.16 12.81C111.38 12.44 111.48 11.94 111.77 11.62C111.83 11.55 111.9 11.51 111.98 11.46C112.03 11.43 112.09 11.4 112.14 11.36C112.18 11.34 112.25 11.33 112.16 11.34C112.32 11.32 112.48 11.35 112.6 11.46C112.95 11.77 112.87 12.39 112.82 12.8C112.69 13.81 112.25 14.84 111.5 15.55C111.32 15.72 110.84 16.1 110.67 15.74C110.49 15.36 110.58 14.8 110.62 14.4C110.73 13.23 111.23 12.06 111.98 11.16C112.26 10.83 111.81 10.35 111.49 10.67L111.51 10.69Z" fill="#AD935C"/>
<path d="M113.5 2.46999C112.76 2.95999 112.19 3.68999 111.95 4.54999C111.73 5.33999 111.72 6.46999 112.64 6.80999C113.63 7.17999 114.42 6.09999 114.78 5.32999C115 4.86999 115.16 4.40999 115.3 3.91999C115.42 3.48999 115.49 3.00999 115.26 2.58999C114.99 2.10999 114.43 1.94999 113.92 2.06999C113.66 2.12999 113.42 2.27999 113.22 2.44999C112.97 2.65999 112.79 2.85999 112.81 3.20999C112.81 3.35999 112.94 3.52999 113.11 3.50999C113.32 3.48999 113.48 3.45999 113.64 3.29999C113.76 3.17999 113.87 3.05999 114.02 2.97999C114.11 2.92999 114.2 2.90999 114.3 2.90999C114.38 2.90999 114.45 2.94999 114.48 2.98999C114.53 3.06999 114.54 3.12999 114.53 3.25999C114.53 3.38999 114.49 3.52999 114.44 3.67999C114.33 4.01999 114.15 4.34999 113.99 4.65999C113.91 4.81999 113.82 4.97999 113.73 5.13999C113.65 5.27999 113.56 5.43999 113.48 5.52999C113.39 5.62999 113.28 5.74999 113.2 5.78999C113.17 5.80999 113.14 5.82999 113.11 5.83999C113.13 5.83999 113.19 5.81999 113.09 5.83999C113.06 5.83999 113.03 5.85999 112.99 5.85999C113.1 5.84999 112.9 5.84999 113.01 5.85999C112.98 5.85999 112.94 5.83999 112.91 5.82999C112.94 5.82999 112.95 5.85999 112.89 5.80999C112.97 5.86999 112.81 5.71999 112.87 5.78999C112.85 5.75999 112.79 5.63999 112.81 5.68999C112.78 5.61999 112.77 5.54999 112.75 5.47999C112.73 5.38999 112.75 5.58999 112.75 5.42999C112.75 5.39999 112.75 5.35999 112.75 5.32999C112.75 5.25999 112.75 5.19999 112.75 5.12999C112.76 4.97999 112.78 4.85999 112.82 4.70999C112.99 4.00999 113.34 3.36999 113.87 2.88999C114.12 2.66999 113.79 2.23999 113.51 2.41999L113.5 2.46999Z" fill="#AD935C"/>
<path d="M112 18.46C113.41 19.1 114.99 19.4 116.53 19.23C117.29 19.15 118.03 18.98 118.75 18.72C119.49 18.44 120.25 18.13 120.75 17.5C120.91 17.3 120.77 16.92 120.47 17.03C119.81 17.26 119.24 17.65 118.59 17.91C117.91 18.18 117.19 18.37 116.47 18.46C115.03 18.64 113.58 18.48 112.23 17.95C111.93 17.83 111.71 18.34 112.01 18.48L112 18.46Z" fill="#AD935C"/>
<path d="M113.71 17.2C115.17 17.6 116.66 17.62 118.13 17.25C118.84 17.07 119.53 16.8 120.17 16.47C120.51 16.29 120.85 16.09 121.16 15.87C121.49 15.64 121.66 15.45 121.8 15.07C121.87 14.88 121.66 14.73 121.49 14.76C120.84 14.89 120.35 15.38 119.78 15.69C119.18 16.01 118.55 16.26 117.9 16.44C116.6 16.8 115.18 16.88 113.85 16.67C113.51 16.61 113.35 17.1 113.7 17.2H113.71Z" fill="#AD935C"/>
<path d="M116.43 15.6C117.33 15.72 118.3 15.71 119.16 15.43C119.6 15.29 120.02 15.1 120.42 14.87C120.82 14.64 121.43 14.31 121.46 13.8C121.47 13.59 121.28 13.43 121.08 13.42C120.81 13.42 120.64 13.58 120.44 13.74C120.3 13.86 120.15 13.97 119.99 14.07C119.65 14.3 119.28 14.5 118.9 14.66C118.12 14.99 117.33 15.21 116.47 15.21C116.25 15.21 116.19 15.57 116.42 15.6H116.43Z" fill="#AD935C"/>
<path d="M117.37 14.13C118.05 13.95 118.71 13.69 119.33 13.35C119.63 13.19 119.91 13.01 120.19 12.82C120.34 12.71 120.49 12.59 120.63 12.46C120.7 12.39 120.78 12.32 120.83 12.23C120.88 12.14 120.88 12.02 120.89 11.92C120.88 11.96 120.87 12.01 120.85 12.05C120.88 12 120.9 11.95 120.93 11.91C121.05 11.72 120.82 11.5 120.63 11.61C120.58 11.64 120.53 11.67 120.48 11.69C120.52 11.68 120.57 11.67 120.61 11.65C120.54 11.65 120.45 11.65 120.38 11.67C120.27 11.7 120.18 11.78 120.09 11.85C119.96 11.95 119.83 12.05 119.71 12.16C119.47 12.36 119.22 12.55 118.95 12.72C118.41 13.07 117.82 13.36 117.21 13.58C116.87 13.7 117 14.22 117.36 14.13H117.37Z" fill="#AD935C"/>
<path d="M118.71 12.13L118.97 11.9C119.06 11.82 119.16 11.75 119.24 11.66C119.41 11.49 119.56 11.32 119.72 11.14C119.81 11.04 119.82 10.9 119.74 10.8C119.67 10.71 119.51 10.65 119.4 10.73C119.21 10.87 119.02 11.01 118.83 11.15C118.72 11.23 118.62 11.33 118.52 11.42C118.43 11.5 118.34 11.58 118.25 11.67C118.12 11.78 118.13 12.01 118.25 12.13C118.39 12.25 118.57 12.25 118.71 12.13Z" fill="#AD935C"/>
<path d="M116.06 7.30998C116.45 7.43998 116.85 7.55998 117.27 7.50998C117.72 7.44998 118.15 7.30998 118.52 7.03998C118.77 6.84998 119.04 6.62998 119.03 6.27998C119.03 6.10998 118.93 5.91998 118.75 5.86998C118.71 5.85998 118.64 5.84998 118.6 5.84998C118.55 5.84998 118.5 5.85998 118.46 5.87998C118.44 5.87998 118.28 5.95998 118.35 5.92998C118.46 5.87998 118.23 5.98998 118.21 6.00998C118.17 6.03998 118.15 6.05998 118.12 6.08998C118.09 6.11998 118.06 6.14998 118.04 6.17998C117.97 6.25998 117.88 6.32998 117.8 6.39998C117.88 6.32998 117.78 6.40998 117.75 6.42998C117.71 6.45998 117.67 6.48998 117.63 6.50998C117.54 6.56998 117.45 6.61998 117.36 6.65998C117.35 6.65998 117.28 6.69998 117.33 6.67998C117.38 6.65998 117.29 6.69998 117.28 6.69998C117.22 6.71998 117.17 6.73998 117.11 6.75998C117.01 6.78998 116.9 6.81998 116.8 6.84998C116.69 6.87998 116.63 6.88998 116.53 6.88998C116.41 6.88998 116.32 6.88998 116.2 6.85998C115.9 6.78998 115.78 7.21998 116.07 7.31998L116.06 7.30998Z" fill="#AD935C"/>
<path d="M116.95 6.01003C117.38 6.05003 117.86 5.88003 118.17 5.58003C118.3 5.46003 118.4 5.28003 118.35 5.10003C118.3 4.93003 118.14 4.84003 117.97 4.88003C117.88 4.90003 117.8 4.95003 117.74 5.01003C117.71 5.04003 117.67 5.07003 117.64 5.10003C117.62 5.12003 117.6 5.13003 117.59 5.15003C117.54 5.19003 117.67 5.09003 117.59 5.15003C117.51 5.20003 117.43 5.25003 117.35 5.29003C117.38 5.28003 117.41 5.27003 117.43 5.25003C117.32 5.30003 117.21 5.33003 117.09 5.34003C117.12 5.34003 117.15 5.34003 117.18 5.33003C117.1 5.33003 117.03 5.34003 116.95 5.33003C116.77 5.32003 116.61 5.49003 116.61 5.67003C116.61 5.76003 116.64 5.85003 116.71 5.91003C116.78 5.97003 116.85 6.00003 116.95 6.01003Z" fill="#AD935C"/>
<path d="M117.3 4.76002C117.56 4.74002 117.82 4.67002 118.04 4.53002C118.11 4.49002 118.17 4.44002 118.23 4.39002C118.3 4.34002 118.34 4.28002 118.4 4.21002C118.45 4.14002 118.49 4.08002 118.52 4.00002C118.58 3.83002 118.55 3.67002 118.43 3.54002C118.46 3.62002 118.49 3.69002 118.53 3.77002C118.53 3.70002 118.51 3.64002 118.48 3.57002C118.42 3.45002 118.27 3.41002 118.15 3.43002C118.11 3.43002 118.07 3.46002 118.04 3.48002L118.29 3.45002C118.18 3.42002 118.07 3.43002 117.97 3.49002C117.93 3.51002 117.89 3.55002 117.85 3.59002C117.82 3.62002 117.79 3.65002 117.76 3.68002C117.69 3.74002 117.63 3.81002 117.56 3.86002C117.59 3.84002 117.62 3.82002 117.64 3.79002C117.56 3.85002 117.46 3.91002 117.37 3.95002C117.4 3.94002 117.43 3.92002 117.47 3.91002C117.38 3.95002 117.3 3.97002 117.21 3.99002C117.12 4.00002 117.02 4.09002 116.98 4.17002C116.94 4.25002 116.92 4.33002 116.93 4.42002C116.95 4.60002 117.12 4.78002 117.32 4.76002H117.3Z" fill="#AD935C"/>
<path d="M174.86 33.02C173.99 33.02 173.12 32.87 172.28 32.56C168.37 31.14 166.35 26.8 167.77 22.9C169.19 18.99 173.53 16.97 177.43 18.39C181.34 19.81 183.36 24.15 181.94 28.05C181.25 29.94 179.87 31.45 178.04 32.3C177.03 32.77 175.94 33.01 174.86 33.01V33.02ZM174.86 19.61C172.46 19.61 170.21 21.09 169.34 23.47C168.23 26.51 169.81 29.88 172.84 30.98C174.31 31.51 175.9 31.45 177.32 30.78C178.74 30.12 179.82 28.94 180.35 27.47C181.46 24.43 179.88 21.06 176.85 19.95C176.19 19.71 175.52 19.6 174.85 19.6L174.86 19.61Z" fill="#AD935C"/>
<path d="M178.02 21.74C177.45 21.74 176.88 21.64 176.32 21.44C173.74 20.5 172.4 17.63 173.34 15.05C173.8 13.8 174.71 12.8 175.92 12.24C177.13 11.68 178.48 11.62 179.73 12.07C180.98 12.53 181.98 13.44 182.54 14.65C183.1 15.86 183.16 17.21 182.71 18.46C181.97 20.48 180.05 21.74 178.02 21.74ZM178.02 13.44C177.54 13.44 177.07 13.54 176.62 13.75C175.82 14.12 175.21 14.79 174.91 15.62C174.29 17.34 175.17 19.24 176.89 19.87C178.6 20.49 180.51 19.61 181.13 17.89C181.43 17.06 181.39 16.16 181.02 15.36C180.65 14.56 179.98 13.95 179.15 13.65C178.78 13.52 178.4 13.45 178.02 13.45V13.44Z" fill="#AD935C"/>
<path d="M173.07 21.05C171.93 21.6 170.97 22.44 170.28 23.5C169.93 24.04 169.61 24.64 169.53 25.28C169.45 25.97 169.83 26.65 170.55 26.76C171.18 26.86 171.79 26.58 172.3 26.23C172.84 25.86 173.34 25.42 173.76 24.93C174.19 24.41 174.58 23.84 174.82 23.21C175.07 22.55 175.03 21.71 174.47 21.21C174.32 21.07 174.14 20.96 173.94 20.91C173.73 20.86 173.5 20.91 173.29 20.95C172.92 21.03 172.65 21.32 172.38 21.56C172.12 21.79 171.91 22.07 171.66 22.31C171.54 22.43 171.41 22.51 171.27 22.6C171.13 22.69 171.03 22.79 170.86 22.82C170.66 22.86 170.67 23.17 170.86 23.22C171.12 23.29 171.41 23.32 171.66 23.19C171.9 23.07 172.11 22.88 172.3 22.7C172.5 22.51 172.68 22.29 172.89 22.11C173.08 21.95 173.36 21.88 173.6 21.89C173.52 21.87 173.44 21.85 173.35 21.82C173.66 21.96 173.88 22.03 173.93 22.36C173.98 22.76 173.76 23.19 173.58 23.53C173.2 24.24 172.66 24.88 171.99 25.31C171.69 25.5 171.36 25.71 171 25.75C170.91 25.75 170.77 25.75 170.73 25.73C170.65 25.69 170.61 25.64 170.59 25.56C170.53 25.23 170.75 24.81 170.88 24.51C171.04 24.14 171.24 23.78 171.47 23.45C171.98 22.71 172.64 22.09 173.42 21.65C173.81 21.43 173.47 20.86 173.07 21.05Z" fill="#AD935C"/>
<path d="M177.77 13.99C176.94 14.19 176.19 14.67 175.67 15.35C175.18 15.99 174.73 17.08 175.46 17.73C176.26 18.44 177.35 17.74 177.97 17.15C178.32 16.82 178.63 16.46 178.91 16.06C179.18 15.68 179.46 15.26 179.41 14.77C179.35 14.18 178.86 13.8 178.29 13.75C178.04 13.72 177.77 13.78 177.54 13.87C177.41 13.92 177.26 13.98 177.13 14.05C176.97 14.15 176.93 14.3 176.88 14.47C176.83 14.63 176.94 14.8 177.09 14.84C177.18 14.86 177.27 14.9 177.36 14.9C177.5 14.9 177.61 14.82 177.74 14.76C177.84 14.71 178.02 14.65 178.12 14.64C178.16 14.64 178.19 14.64 178.23 14.64C178.25 14.64 178.34 14.66 178.26 14.64C178.29 14.64 178.32 14.66 178.34 14.66C178.45 14.68 178.3 14.62 178.39 14.68C178.41 14.69 178.44 14.71 178.46 14.72C178.4 14.68 178.46 14.72 178.48 14.74C178.52 14.79 178.46 14.66 178.5 14.77C178.52 14.83 178.52 14.77 178.52 14.84C178.52 14.78 178.52 14.86 178.52 14.87C178.52 14.98 178.54 14.84 178.52 14.95C178.5 15.01 178.48 15.08 178.47 15.11C178.39 15.27 178.29 15.41 178.19 15.52C177.93 15.8 177.66 16.07 177.38 16.33C177.25 16.45 177.12 16.56 176.99 16.67C177.01 16.66 176.87 16.77 176.93 16.72C176.99 16.67 176.86 16.77 176.87 16.76C176.8 16.81 176.72 16.86 176.65 16.9C176.62 16.91 176.45 16.99 176.53 16.96C176.46 16.99 176.39 17.01 176.31 17.03C176.18 17.06 176.37 17.03 176.29 17.03C176.26 17.03 176.22 17.03 176.18 17.03C176.14 17.03 176.12 17 176.19 17.03C176.15 17.01 176.08 16.99 176.15 17.03C176.13 17.03 176.03 16.95 176.11 17.01C176.09 16.99 176.07 16.97 176.05 16.95C176.11 17.01 176.05 16.95 176.05 16.93C176.01 16.87 176.07 17.03 176.05 16.91C176.05 16.88 176.04 16.85 176.03 16.83C176.05 16.94 176.03 16.8 176.03 16.78C176.03 16.75 176.03 16.72 176.03 16.69C176.03 16.59 176.01 16.73 176.03 16.63C176.11 16.32 176.2 16.14 176.39 15.84C176.56 15.59 176.79 15.32 177.05 15.1C177.31 14.88 177.61 14.69 177.92 14.57C178.27 14.43 178.14 13.9 177.76 14L177.77 13.99Z" fill="#AD935C"/>
<path d="M170.93 28.5201C172.03 29.6101 173.43 30.4101 174.93 30.7801C175.68 30.9601 176.45 31.06 177.22 31.05C178 31.05 178.81 30.9901 179.48 30.5701C179.72 30.42 179.62 30.0501 179.34 30.0401C178.65 30.0301 177.98 30.2 177.29 30.22C176.57 30.24 175.85 30.1801 175.14 30.0201C173.73 29.7001 172.42 29.0701 171.33 28.1101C171.05 27.8701 170.66 28.2601 170.92 28.5201H170.93Z" fill="#AD935C"/>
<path d="M172.96 27.92C174.18 28.79 175.56 29.29 177.05 29.46C177.78 29.54 178.52 29.52 179.25 29.43C179.94 29.34 180.78 29.27 181.25 28.71C181.36 28.58 181.34 28.33 181.14 28.29C180.79 28.23 180.56 28.25 180.22 28.35C179.89 28.44 179.55 28.52 179.21 28.57C178.54 28.67 177.86 28.69 177.19 28.64C175.82 28.54 174.44 28.12 173.25 27.45C172.94 27.27 172.69 27.72 172.97 27.93L172.96 27.92Z" fill="#AD935C"/>
<path d="M176.06 27.33C176.86 27.75 177.77 28.05 178.67 28.09C179.13 28.11 179.6 28.07 180.05 27.99C180.51 27.91 181.07 27.81 181.36 27.42C181.5 27.23 181.36 26.88 181.13 26.84C180.7 26.77 180.27 27.01 179.86 27.11C179.47 27.21 179.08 27.26 178.67 27.28C177.82 27.32 177.01 27.25 176.21 26.96C176 26.88 175.85 27.22 176.06 27.33Z" fill="#AD935C"/>
<path d="M177.46 26.27C178.18 26.33 178.9 26.3 179.61 26.19C179.96 26.14 180.31 26.06 180.65 25.96C180.82 25.91 180.98 25.85 181.15 25.77C181.26 25.72 181.35 25.67 181.41 25.57C181.46 25.49 181.48 25.45 181.56 25.39C181.75 25.24 181.54 24.99 181.35 25.03C181.26 25.05 181.28 25.03 181.18 25.01C181.08 24.99 181 25.01 180.91 25.03C180.75 25.07 180.59 25.13 180.44 25.19C180.12 25.31 179.79 25.41 179.45 25.49C178.8 25.65 178.13 25.71 177.46 25.71C177.09 25.71 177.1 26.25 177.46 26.28V26.27Z" fill="#AD935C"/>
<path d="M179.33 24.86C179.57 24.77 179.82 24.68 180.05 24.57C180.27 24.47 180.48 24.36 180.69 24.25C180.81 24.19 180.84 24.04 180.8 23.92C180.75 23.8 180.62 23.73 180.49 23.77C180.27 23.84 180.04 23.9 179.81 23.97C179.59 24.04 179.37 24.15 179.15 24.23C179.07 24.26 179 24.3 178.96 24.38C178.92 24.45 178.9 24.55 178.93 24.63C178.98 24.78 179.16 24.92 179.33 24.86Z" fill="#AD935C"/>
<path d="M178.51 19.39C178.85 19.66 179.19 19.92 179.62 20.02C180.06 20.12 180.54 20.12 180.97 19.99C181.26 19.9 181.54 19.78 181.67 19.48C181.73 19.33 181.72 19.12 181.61 19.01C181.51 18.91 181.34 18.87 181.2 18.88C181.04 18.89 180.92 18.95 180.77 19.02C180.72 19.04 180.68 19.07 180.63 19.09C180.72 19.05 180.59 19.1 180.56 19.11C180.47 19.14 180.37 19.17 180.27 19.19C180.23 19.2 180.18 19.21 180.13 19.22C180.1 19.22 180.08 19.22 180.05 19.23C180.09 19.23 180.09 19.23 180.05 19.23C179.82 19.25 179.59 19.23 179.36 19.21C179.2 19.19 178.96 19.12 178.79 19.01C178.57 18.86 178.28 19.22 178.5 19.39H178.51Z" fill="#AD935C"/>
<path d="M179.76 18.47C180.02 18.59 180.31 18.66 180.59 18.63C180.73 18.62 180.88 18.59 181.01 18.54C181.09 18.51 181.16 18.48 181.23 18.43C181.38 18.33 181.48 18.15 181.41 17.97V18.08C181.41 18.08 181.41 18.07 181.41 18.06C181.44 17.94 181.35 17.82 181.22 17.82C181.22 17.82 181.21 17.82 181.2 17.82C181.25 17.84 181.3 17.86 181.34 17.88C181.24 17.78 181.09 17.75 180.95 17.79C180.92 17.79 180.88 17.82 180.85 17.83C180.8 17.85 180.87 17.83 180.88 17.82C180.88 17.82 180.85 17.83 180.84 17.83C180.81 17.84 180.77 17.86 180.74 17.87C180.75 17.87 180.82 17.84 180.77 17.86C180.76 17.86 180.75 17.86 180.73 17.87C180.71 17.87 180.68 17.89 180.65 17.89C180.6 17.91 180.54 17.92 180.49 17.93C180.45 17.93 180.57 17.93 180.52 17.93C180.51 17.93 180.49 17.93 180.48 17.93C180.45 17.93 180.43 17.93 180.4 17.93C180.35 17.93 180.3 17.93 180.24 17.93C180.2 17.93 180.32 17.94 180.27 17.93C180.26 17.93 180.24 17.93 180.23 17.93C180.2 17.93 180.18 17.92 180.15 17.91C180.12 17.91 180.1 17.9 180.07 17.89C180.05 17.89 179.95 17.84 180.05 17.89C179.96 17.85 179.89 17.83 179.79 17.86C179.71 17.88 179.63 17.94 179.59 18.01C179.51 18.16 179.54 18.39 179.71 18.47H179.76Z" fill="#AD935C"/>
<path d="M180.61 17.45C180.87 17.52 181.13 17.52 181.39 17.47C181.51 17.44 181.65 17.4 181.76 17.33C181.96 17.19 182.17 17 182.08 16.72V16.89C182.11 16.78 182.1 16.65 182.01 16.56C181.97 16.52 181.92 16.5 181.87 16.48C181.8 16.46 181.74 16.48 181.68 16.48C181.76 16.49 181.85 16.5 181.93 16.51C181.81 16.44 181.68 16.43 181.55 16.48C181.48 16.5 181.41 16.54 181.34 16.57L181.44 16.53C181.35 16.57 181.27 16.61 181.18 16.64C181.21 16.63 181.25 16.61 181.28 16.6C181.18 16.64 181.08 16.67 180.97 16.69C181.01 16.69 181.04 16.69 181.08 16.68C180.98 16.69 180.88 16.69 180.77 16.68C180.81 16.68 180.84 16.68 180.88 16.69C180.86 16.69 180.83 16.69 180.81 16.68C180.7 16.66 180.6 16.66 180.51 16.72C180.43 16.77 180.35 16.86 180.33 16.95C180.28 17.16 180.39 17.37 180.6 17.43L180.61 17.45Z" fill="#AD935C"/>
<path d="M54.6699 33.02C53.5799 33.02 52.4999 32.78 51.4899 32.31C49.6599 31.46 48.2799 29.95 47.5899 28.06C46.8999 26.17 46.9899 24.12 47.8399 22.29C48.6899 20.46 50.1999 19.08 52.0899 18.39C55.9899 16.97 60.3299 18.99 61.7499 22.9C62.4399 24.79 62.3499 26.84 61.4999 28.67C60.6499 30.49 59.1399 31.88 57.2499 32.57C56.4099 32.88 55.5399 33.03 54.6699 33.03V33.02ZM54.6699 19.61C54.0099 19.61 53.3299 19.72 52.6699 19.96C51.1999 20.5 50.0199 21.57 49.3599 22.99C48.6999 24.41 48.6299 26 49.1599 27.47C49.6899 28.94 50.7699 30.12 52.1899 30.78C53.6099 31.44 55.1999 31.51 56.6699 30.98C58.1399 30.44 59.3199 29.37 59.9799 27.95C60.6399 26.53 60.7099 24.94 60.1799 23.47C59.3099 21.09 57.0599 19.61 54.6599 19.61H54.6699Z" fill="#AD935C"/>
<path d="M51.5002 21.74C50.7802 21.74 50.0702 21.58 49.3902 21.27C48.1802 20.71 47.2702 19.71 46.8102 18.45C45.8702 15.87 47.2102 13 49.7902 12.06C52.3702 11.12 55.2402 12.46 56.1802 15.04C57.1202 17.62 55.7802 20.49 53.2002 21.43C52.6402 21.63 52.0702 21.73 51.4902 21.73L51.5002 21.74ZM51.5002 13.44C51.1202 13.44 50.7402 13.5 50.3702 13.64C48.6502 14.26 47.7702 16.17 48.3902 17.88C48.6902 18.71 49.3002 19.37 50.1002 19.75C50.9002 20.12 51.8002 20.16 52.6302 19.86C53.4602 19.56 54.1302 18.95 54.5002 18.15C54.8702 17.35 54.9102 16.45 54.6102 15.62C54.1202 14.28 52.8502 13.44 51.5002 13.44Z" fill="#AD935C"/>
<path d="M50.4998 23.17C49.9198 24.49 49.7298 25.88 49.9798 27.3C50.0898 27.93 50.2898 28.67 50.7898 29.09C51.3298 29.54 52.0398 29.46 52.5298 28.98C52.9898 28.53 53.1998 27.88 53.3198 27.26C53.4598 26.55 53.5398 25.84 53.4698 25.12C53.4098 24.44 53.2898 23.7 52.8798 23.14C52.4798 22.6 51.7098 22.23 51.0598 22.55C50.4398 22.84 50.3198 23.55 50.2498 24.16C50.2098 24.46 50.2298 24.77 50.1898 25.07C50.1698 25.23 50.1398 25.38 50.0898 25.53C50.0398 25.68 50.0198 25.85 49.9298 25.97C49.7898 26.15 49.9598 26.4 50.1798 26.29C50.4398 26.16 50.6598 25.99 50.7698 25.71C50.8698 25.44 50.9098 25.15 50.9398 24.86C50.9598 24.6 50.9398 24.32 51.0198 24.06C51.0798 23.84 51.2598 23.63 51.4398 23.49C51.3698 23.53 51.2998 23.57 51.2198 23.62C51.3798 23.58 51.5398 23.49 51.6998 23.53C51.8998 23.58 52.0298 23.73 52.1298 23.9C52.3798 24.33 52.4898 24.89 52.5298 25.38C52.5698 25.89 52.5598 26.42 52.4398 26.91C52.3398 27.33 52.1998 27.85 51.8698 28.16C51.5998 28.42 51.4198 28.29 51.2598 27.99C51.0498 27.58 50.9298 27.08 50.8398 26.63C50.6398 25.57 50.7398 24.45 51.1098 23.43C51.2398 23.07 50.6398 22.81 50.4798 23.16L50.4998 23.17Z" fill="#AD935C"/>
<path d="M49.5198 14.82C48.9598 15.58 48.6998 16.53 48.8198 17.47C48.8798 17.92 48.9998 18.36 49.2998 18.72C49.5898 19.07 50.0498 19.23 50.4898 19.12C51.3898 18.89 51.6398 17.76 51.7198 16.98C51.7698 16.48 51.7498 15.99 51.7198 15.49C51.6898 15.08 51.5898 14.64 51.2698 14.34C50.8698 13.96 50.2498 13.97 49.8098 14.27C49.5798 14.42 49.3898 14.65 49.2598 14.89C49.1098 15.16 49.0098 15.41 49.1298 15.71C49.2098 15.9 49.3798 15.98 49.5698 15.89C49.7398 15.81 49.8498 15.72 49.9298 15.55C49.9998 15.41 50.0598 15.26 50.1598 15.14C50.2698 15 50.4998 14.86 50.6398 14.97C50.7898 15.08 50.8198 15.38 50.8298 15.58C50.8298 15.96 50.7898 16.37 50.7398 16.75C50.6998 17.06 50.6598 17.39 50.5598 17.69C50.5298 17.79 50.4998 17.85 50.4298 17.97C50.4098 18 50.3898 18.03 50.3698 18.06C50.3798 18.04 50.4198 18.01 50.3498 18.08C50.3298 18.1 50.3198 18.12 50.2998 18.13C50.2598 18.17 50.3398 18.11 50.2698 18.16C50.2398 18.18 50.2198 18.19 50.1898 18.2C50.1898 18.2 50.2498 18.17 50.1898 18.19C50.1098 18.21 50.2598 18.19 50.1798 18.19C50.1598 18.19 50.1298 18.19 50.0998 18.19C50.1598 18.19 50.0698 18.18 50.0698 18.17C50.0998 18.18 50.0998 18.19 50.0398 18.15C50.0398 18.15 50.0798 18.18 50.0298 18.15C49.9898 18.12 49.9598 18.09 49.9298 18.05C49.7798 17.86 49.7098 17.56 49.6598 17.31C49.5298 16.58 49.6598 15.8 49.9998 15.15C50.1798 14.81 49.7098 14.55 49.4898 14.85L49.5198 14.82Z" fill="#AD935C"/>
<path d="M53.6598 30.32C55.2098 30.44 56.7898 30.15 58.1798 29.46C58.8598 29.12 59.4998 28.7 60.0798 28.2C60.6798 27.69 61.2598 27.13 61.5098 26.36C61.5998 26.07 61.2398 25.92 61.0398 26.08C60.4898 26.53 60.0798 27.1 59.5498 27.57C59.0198 28.04 58.4198 28.44 57.7898 28.76C56.5098 29.42 55.0998 29.76 53.6598 29.72C53.2898 29.71 53.2898 30.27 53.6598 30.3V30.32Z" fill="#AD935C"/>
<path d="M54.76 28.56C56.25 28.45 57.66 27.96 58.9 27.13C59.51 26.72 60.08 26.24 60.58 25.69C60.83 25.42 61.06 25.13 61.28 24.83C61.53 24.49 61.66 24.23 61.66 23.81C61.66 23.62 61.45 23.5 61.29 23.59C60.98 23.78 60.82 23.96 60.61 24.26C60.41 24.55 60.2 24.82 59.97 25.08C59.51 25.59 59 26.04 58.44 26.43C57.33 27.21 56.02 27.76 54.69 28.0201C54.39 28.08 54.45 28.58 54.76 28.56Z" fill="#AD935C"/>
<path d="M56.8302 26.11C57.6702 25.93 58.5202 25.59 59.2102 25.08C59.5602 24.82 59.8902 24.52 60.1802 24.19C60.4702 23.86 60.8602 23.42 60.9402 22.97C61.0102 22.57 60.5602 22.25 60.2402 22.56C60.0802 22.72 59.9802 22.91 59.8602 23.1C59.7502 23.27 59.6402 23.44 59.5202 23.6C59.2902 23.91 59.0102 24.18 58.7302 24.45C58.1402 25 57.4902 25.45 56.7302 25.72C56.4902 25.81 56.5802 26.16 56.8402 26.11H56.8302Z" fill="#AD935C"/>
<path d="M57.1498 24.44C57.7198 24.04 58.2598 23.58 58.7198 23.05C58.9598 22.78 59.1798 22.5 59.3798 22.21C59.4798 22.07 59.5698 21.93 59.6398 21.77C59.6898 21.67 59.7498 21.57 59.7598 21.46C59.7798 21.35 59.7398 21.26 59.7198 21.16V21.3C59.7198 21.3 59.7398 21.2 59.7498 21.15C59.7898 20.96 59.5398 20.76 59.3898 20.94C59.3298 21.01 59.3498 21.01 59.2798 21.04C59.1398 21.09 59.0698 21.18 58.9898 21.31C58.8998 21.46 58.8098 21.6 58.7298 21.75C58.5598 22.04 58.3798 22.32 58.1798 22.58C57.7898 23.11 57.3098 23.59 56.7998 24C56.5498 24.2 56.8798 24.63 57.1398 24.45L57.1498 24.44Z" fill="#AD935C"/>
<path d="M57.7301 22.11C57.7901 22.01 57.8401 21.91 57.9001 21.81C57.9601 21.71 58.0201 21.6 58.0701 21.49C58.1701 21.27 58.2601 21.05 58.3501 20.83C58.4001 20.7 58.3901 20.54 58.2601 20.47C58.1301 20.4 57.9801 20.44 57.9001 20.56C57.7701 20.76 57.6301 20.95 57.5101 21.15C57.4501 21.25 57.4001 21.35 57.3501 21.46C57.2901 21.57 57.2401 21.67 57.1801 21.78C57.1001 21.93 57.1401 22.14 57.3001 22.22C57.4501 22.3 57.6601 22.26 57.7401 22.1L57.7301 22.11Z" fill="#AD935C"/>
<path d="M53.5901 18.46C54.0201 18.46 54.4501 18.42 54.8501 18.22C55.2601 18.01 55.6101 17.7 55.8601 17.32C55.9101 17.24 55.9601 17.16 56.0001 17.08C56.0501 16.97 56.1001 16.87 56.0901 16.75C56.0901 16.66 56.0701 16.56 56.0401 16.47C55.9601 16.29 55.7901 16.16 55.5801 16.2C55.4401 16.23 55.3301 16.31 55.2401 16.41C55.1601 16.5 55.1201 16.59 55.0801 16.7C55.0801 16.7 55.0801 16.72 55.0701 16.73C55.0501 16.78 55.0601 16.77 55.0901 16.69C55.0901 16.7 55.0701 16.73 55.0701 16.74C55.0301 16.83 54.9801 16.92 54.9201 17.01C54.9001 17.05 54.8701 17.08 54.8501 17.12C54.8301 17.14 54.8201 17.17 54.8001 17.19C54.7701 17.23 54.8001 17.21 54.8201 17.17C54.8201 17.2 54.7501 17.26 54.7201 17.28C54.6801 17.32 54.6401 17.37 54.6001 17.41C54.5601 17.44 54.5301 17.48 54.4901 17.51C54.4701 17.53 54.4501 17.55 54.4201 17.57C54.4801 17.54 54.4401 17.55 54.4101 17.57C54.3901 17.58 54.3801 17.59 54.3601 17.6C54.3401 17.61 54.1801 17.72 54.2501 17.68C54.3001 17.65 54.2201 17.7 54.2201 17.7C54.2001 17.72 54.1701 17.73 54.1501 17.75C54.0601 17.81 53.9701 17.86 53.8701 17.9C53.7901 17.94 53.9201 17.88 53.8301 17.92C53.8001 17.93 53.7801 17.94 53.7501 17.95C53.7001 17.96 53.6501 17.97 53.6101 17.97C53.4801 17.98 53.3701 18.07 53.3701 18.21C53.3701 18.34 53.4801 18.45 53.6101 18.45L53.5901 18.46Z" fill="#AD935C"/>
<path d="M53.9701 16.94C54.2601 16.87 54.5401 16.7 54.7401 16.47C54.8601 16.34 54.9601 16.19 55.0301 16.02C55.0401 15.99 55.0501 15.96 55.0601 15.94C55.0801 15.86 55.0701 15.77 55.0601 15.69C55.0201 15.57 54.9001 15.46 54.7701 15.46C54.6901 15.46 54.6201 15.48 54.5601 15.53C54.5401 15.55 54.5201 15.56 54.5001 15.58C54.4301 15.64 54.3901 15.74 54.3501 15.82C54.3201 15.89 54.2801 15.95 54.2301 16.01C54.2501 15.99 54.2701 15.96 54.2901 15.94C54.2201 16.03 54.1401 16.11 54.0601 16.17C54.0801 16.15 54.1101 16.13 54.1301 16.12C54.0501 16.18 53.9501 16.24 53.8601 16.28L53.9401 16.25C53.9401 16.25 53.8501 16.28 53.8101 16.3C53.6401 16.35 53.5201 16.54 53.5801 16.71C53.6401 16.89 53.8101 16.99 53.9901 16.94H53.9701Z" fill="#AD935C"/>
<path d="M53.9701 15.61C54.1701 15.52 54.3601 15.37 54.5001 15.19C54.6001 15.06 54.6901 14.94 54.7401 14.78C54.7601 14.72 54.7701 14.65 54.7801 14.59C54.7801 14.55 54.7801 14.51 54.7801 14.47C54.7801 14.4 54.7601 14.33 54.7301 14.27C54.6901 14.2 54.6301 14.16 54.5701 14.12C54.6101 14.16 54.6501 14.2 54.6901 14.24C54.6901 14.23 54.6901 14.22 54.6701 14.21C54.6101 14.13 54.5501 14.08 54.4501 14.07C54.3501 14.06 54.2701 14.09 54.2001 14.15C54.2001 14.15 54.1801 14.17 54.1801 14.18C54.2301 14.15 54.2701 14.12 54.3201 14.1C54.2001 14.13 54.1101 14.2 54.0401 14.31C54.0101 14.36 53.9901 14.42 53.9701 14.47C53.9801 14.44 54.0001 14.4 54.0101 14.37C53.9701 14.45 53.9301 14.53 53.9001 14.61C53.9101 14.58 53.9301 14.54 53.9401 14.51C53.9001 14.61 53.8501 14.7 53.7801 14.78C53.8001 14.75 53.8201 14.72 53.8401 14.7C53.7801 14.78 53.7101 14.85 53.6301 14.92C53.6601 14.9 53.6801 14.88 53.7101 14.86C53.6601 14.9 53.6201 14.93 53.5701 14.96C53.3901 15.06 53.3201 15.32 53.4301 15.5C53.4801 15.58 53.5601 15.66 53.6601 15.68C53.6901 15.68 53.7301 15.68 53.7601 15.69C53.8301 15.69 53.9001 15.67 53.9601 15.64L53.9701 15.61Z" fill="#AD935C"/>
<path d="M216.52 50.66C215.86 50.66 215.21 50.57 214.56 50.4C212.62 49.88 210.99 48.63 209.98 46.89C207.9 43.29 209.14 38.67 212.74 36.59C216.34 34.51 220.96 35.75 223.04 39.35C225.12 42.95 223.88 47.57 220.28 49.65C219.12 50.32 217.83 50.66 216.52 50.66ZM216.5 37.26C215.51 37.26 214.5 37.51 213.58 38.04C210.78 39.66 209.82 43.25 211.43 46.05C212.21 47.41 213.48 48.38 214.99 48.78C216.5 49.19 218.08 48.98 219.44 48.19C222.24 46.57 223.2 42.98 221.59 40.18C220.5 38.3 218.53 37.25 216.5 37.25V37.26Z" fill="#AD935C"/>
<path d="M224.55 43.4701C222.82 43.4701 221.14 42.5801 220.22 40.9801C218.85 38.6001 219.66 35.5401 222.05 34.1701C224.43 32.8001 227.49 33.6101 228.87 36.0001C230.24 38.3801 229.43 41.4401 227.04 42.8101C226.26 43.2601 225.4 43.4801 224.55 43.4801V43.4701ZM224.54 35.1701C223.97 35.1701 223.4 35.3201 222.89 35.6201C221.31 36.5301 220.77 38.5601 221.68 40.1401C222.59 41.7201 224.62 42.2601 226.2 41.3501C227.78 40.4401 228.33 38.4101 227.41 36.8301C226.97 36.0601 226.25 35.5201 225.4 35.2901C225.12 35.2101 224.82 35.1801 224.54 35.1801V35.1701Z" fill="#AD935C"/>
<path d="M218.02 38.6C216.69 38.27 215.31 38.31 214.01 38.77C213.39 38.99 212.71 39.28 212.32 39.83C211.94 40.37 212.03 41.09 212.54 41.52C213.04 41.94 213.68 42.06 214.32 42.1C215.03 42.15 215.76 42.1 216.46 41.93C217.13 41.78 217.84 41.53 218.37 41.08C218.89 40.63 219.17 39.83 218.83 39.18C218.5 38.55 217.75 38.52 217.13 38.54C216.8 38.55 216.48 38.63 216.15 38.65C215.86 38.67 215.43 38.67 215.17 38.54C215 38.45 214.76 38.64 214.89 38.82C215 38.98 215.14 39.15 215.31 39.25C215.53 39.37 215.82 39.38 216.06 39.37C216.48 39.37 216.96 39.2 217.36 39.31C217.68 39.39 217.97 39.64 217.86 40C217.73 40.42 217.21 40.65 216.84 40.8C215.87 41.21 214.69 41.36 213.68 41.02C213.48 40.95 213.08 40.77 213.15 40.51C213.2 40.34 213.41 40.21 213.55 40.13C213.79 39.98 214.05 39.85 214.3 39.73C215.37 39.23 216.66 39.07 217.82 39.27C218.25 39.35 218.44 38.71 218 38.6H218.02Z" fill="#AD935C"/>
<path d="M226.15 36.21C225.28 35.78 224.27 35.67 223.34 35.97C222.89 36.12 222.45 36.34 222.16 36.74C221.9 37.1 221.86 37.59 222.07 37.98C222.5 38.75 223.58 38.81 224.35 38.74C224.87 38.7 225.36 38.6 225.87 38.46C226.27 38.36 226.68 38.16 226.9 37.8C227.19 37.32 227.05 36.73 226.67 36.35C226.48 36.16 226.24 36.03 225.99 35.94C225.87 35.89 225.74 35.86 225.62 35.84C225.43 35.81 225.3 35.87 225.14 35.97C225.01 36.05 224.94 36.24 225.03 36.38C225.14 36.54 225.24 36.66 225.45 36.72C225.62 36.77 225.78 36.8 225.93 36.89C226.08 36.98 226.24 37.18 226.15 37.33C226.06 37.48 225.8 37.56 225.6 37.61C225.25 37.69 224.86 37.7 224.51 37.72C224.2 37.74 223.8 37.76 223.54 37.72C223.47 37.72 223.31 37.67 223.21 37.64C223.21 37.64 223.1 37.6 223.15 37.62C223.19 37.64 223.11 37.6 223.12 37.6C223.09 37.58 222.96 37.5 223.02 37.54C223 37.52 222.97 37.5 222.95 37.47C222.96 37.49 223 37.54 222.95 37.46C222.95 37.46 222.91 37.39 222.93 37.43C222.95 37.48 222.93 37.4 222.93 37.4C222.91 37.28 222.93 37.36 222.93 37.37C222.93 37.36 222.95 37.29 222.93 37.33C222.95 37.28 222.96 37.25 223 37.19C223.14 37.01 223.4 36.88 223.63 36.79C224.37 36.51 225.18 36.48 225.94 36.72C226.26 36.82 226.47 36.33 226.17 36.18L226.15 36.21Z" fill="#AD935C"/>
<path d="M211.55 42.91C211.7 44.45 212.23 45.95 213.14 47.2C213.59 47.82 214.12 48.39 214.71 48.88C215.31 49.38 215.97 49.88 216.76 49.99C217.01 50.02 217.28 49.72 217.04 49.52C216.5 49.05 215.86 48.75 215.3 48.3C214.74 47.86 214.23 47.33 213.8 46.76C212.93 45.6 212.34 44.27 212.12 42.83C212.07 42.51 211.52 42.58 211.55 42.91Z" fill="#AD935C"/>
<path d="M213.48 43.76C213.85 45.2 214.57 46.47 215.59 47.55C216.08 48.07 216.65 48.54 217.25 48.93C217.56 49.13 217.88 49.32 218.22 49.48C218.38 49.56 218.55 49.64 218.71 49.7C218.93 49.78 219.09 49.74 219.31 49.7C219.52 49.67 219.65 49.45 219.49 49.28C219.37 49.15 219.29 49.02 219.13 48.93C218.98 48.85 218.82 48.79 218.66 48.72C218.35 48.57 218.05 48.41 217.76 48.23C217.19 47.88 216.68 47.46 216.21 46.99C215.26 46.05 214.48 44.87 214.01 43.61C213.89 43.28 213.39 43.41 213.48 43.76Z" fill="#AD935C"/>
<path d="M216.23 45.31C216.56 46.12 217.04 46.9 217.67 47.52C217.99 47.84 218.37 48.11 218.76 48.34C219.14 48.57 219.63 48.85 220.09 48.85C220.53 48.85 220.62 48.3 220.3 48.07C220.13 47.95 219.91 47.88 219.73 47.81C219.55 47.74 219.38 47.66 219.21 47.57C218.84 47.38 218.51 47.16 218.18 46.91C217.54 46.43 217 45.86 216.6 45.16C216.49 44.97 216.14 45.1 216.23 45.31Z" fill="#AD935C"/>
<path d="M217.97 45.39C218.47 45.89 219.02 46.33 219.62 46.69C219.91 46.87 220.21 47.03 220.52 47.17C220.69 47.25 220.85 47.31 221.03 47.37C221.13 47.4 221.23 47.43 221.33 47.43C221.44 47.43 221.54 47.37 221.63 47.33C221.58 47.34 221.54 47.35 221.5 47.37C221.56 47.37 221.61 47.37 221.67 47.37C221.89 47.37 221.97 47.07 221.78 46.96C221.75 46.94 221.71 46.93 221.68 46.9C221.73 46.94 221.69 46.9 221.68 46.87C221.62 46.77 221.54 46.71 221.43 46.67C221.27 46.6 221.11 46.54 220.94 46.48C220.63 46.37 220.33 46.24 220.03 46.1C219.43 45.8 218.87 45.43 218.36 44.99C218.09 44.75 217.7 45.13 217.96 45.39H217.97Z" fill="#AD935C"/>
<path d="M220.38 45.55C220.6 45.63 220.82 45.72 221.05 45.78C221.28 45.84 221.51 45.89 221.74 45.94C221.87 45.97 222 45.91 222.05 45.79C222.1 45.68 222.06 45.51 221.94 45.46C221.72 45.37 221.51 45.27 221.29 45.18C221.05 45.08 220.8 45.01 220.55 44.93C220.39 44.88 220.19 44.99 220.15 45.16C220.11 45.34 220.2 45.5 220.38 45.56V45.55Z" fill="#AD935C"/>
<path d="M223.23 40.85C223.31 41.25 223.41 41.66 223.66 41.99C223.93 42.35 224.28 42.65 224.69 42.83C224.81 42.88 224.93 42.93 225.05 42.97C225.24 43.03 225.48 42.99 225.65 42.87C225.81 42.74 225.88 42.56 225.79 42.37C225.73 42.24 225.62 42.15 225.49 42.07C225.38 42 225.24 42 225.12 41.96C225.07 41.95 225.03 41.93 224.98 41.92C224.96 41.92 224.94 41.91 224.93 41.9C224.91 41.9 224.89 41.89 224.88 41.88C224.9 41.88 224.92 41.9 224.94 41.91C224.91 41.88 224.85 41.87 224.81 41.85C224.77 41.83 224.72 41.81 224.68 41.79C224.59 41.74 224.5 41.68 224.41 41.62C224.4 41.61 224.38 41.59 224.36 41.59C224.45 41.64 224.36 41.59 224.34 41.57C224.3 41.54 224.26 41.5 224.22 41.46C224.14 41.38 224.05 41.3 223.98 41.22C223.95 41.19 223.92 41.15 223.89 41.11C223.93 41.16 223.87 41.09 223.87 41.08C223.85 41.06 223.84 41.03 223.82 41.01C223.75 40.91 223.73 40.85 223.69 40.73C223.65 40.61 223.52 40.53 223.39 40.56C223.26 40.6 223.2 40.73 223.22 40.86L223.23 40.85Z" fill="#AD935C"/>
<path d="M224.8 40.97C224.95 41.29 225.23 41.57 225.56 41.72C225.65 41.76 225.75 41.81 225.85 41.82C225.94 41.84 226.03 41.85 226.12 41.82C226.15 41.81 226.2 41.79 226.23 41.77C226.31 41.72 226.36 41.65 226.38 41.56C226.41 41.46 226.35 41.32 226.27 41.26C226.22 41.22 226.19 41.19 226.14 41.17C226.11 41.16 226.08 41.15 226.05 41.14C225.97 41.12 225.89 41.09 225.82 41.06C225.85 41.07 225.88 41.08 225.9 41.1C225.79 41.05 225.7 41 225.61 40.93C225.63 40.95 225.66 40.97 225.68 40.98C225.59 40.91 225.52 40.84 225.45 40.75C225.47 40.77 225.49 40.8 225.5 40.82C225.45 40.76 225.41 40.69 225.38 40.63C225.3 40.47 225.07 40.42 224.92 40.51C224.85 40.56 224.79 40.63 224.77 40.71C224.75 40.8 224.77 40.88 224.8 40.97Z" fill="#AD935C"/>
<path d="M226.06 40.6501C226.21 40.8701 226.4 41.05 226.64 41.17C226.71 41.21 226.79 41.2401 226.86 41.2701C226.94 41.3001 227.02 41.31 227.11 41.32C227.34 41.35 227.63 41.28 227.69 41.01C227.64 41.08 227.59 41.14 227.54 41.21C227.64 41.14 227.73 41.05 227.73 40.92C227.73 40.79 227.65 40.7 227.54 40.64L227.69 40.84C227.67 40.75 227.61 40.67 227.54 40.62C227.49 40.58 227.43 40.5601 227.37 40.5401C227.33 40.5201 227.28 40.51 227.23 40.5C227.14 40.47 227.05 40.45 226.96 40.41C226.99 40.42 227.03 40.4401 227.06 40.4501C226.96 40.4101 226.87 40.3601 226.79 40.2901C226.82 40.3101 226.84 40.33 226.87 40.35C226.8 40.3 226.74 40.24 226.68 40.17C226.62 40.1 226.49 40.05 226.4 40.05C226.31 40.05 226.23 40.0801 226.16 40.1301C226.02 40.2401 225.95 40.47 226.06 40.64V40.6501Z" fill="#AD935C"/>
<path d="M13.0098 50.6599C11.7298 50.6599 10.4398 50.3399 9.24985 49.6499C7.50985 48.6399 6.25985 47.0199 5.73985 45.0699C5.21985 43.1199 5.48985 41.0899 6.48985 39.3499C7.49985 37.6099 9.11985 36.3599 11.0698 35.8399C13.0198 35.3199 15.0498 35.5899 16.7898 36.5899C20.3898 38.6699 21.6298 43.2899 19.5498 46.8899C18.1498 49.3099 15.6198 50.6599 13.0098 50.6599ZM13.0298 37.2599C12.5198 37.2599 12.0098 37.3299 11.4998 37.4599C9.98985 37.8699 8.71985 38.8399 7.93985 40.1899C7.15985 41.5499 6.94985 43.1299 7.34985 44.6399C7.75985 46.1499 8.72985 47.4199 10.0798 48.1999C12.8798 49.8199 16.4698 48.8499 18.0898 46.0499C19.7098 43.2499 18.7398 39.6599 15.9398 38.0399C15.0398 37.5199 14.0298 37.2499 13.0198 37.2499L13.0298 37.2599Z" fill="#AD935C"/>
<path d="M4.98007 43.4699C4.13007 43.4699 3.28007 43.2499 2.49007 42.7999C0.110067 41.4299 -0.709933 38.3699 0.660067 35.9899C2.04007 33.6099 5.09007 32.7899 7.47007 34.1599C9.85007 35.5399 10.6701 38.5899 9.30007 40.9699C8.38007 42.5699 6.70007 43.4599 4.97007 43.4599L4.98007 43.4699ZM4.99007 35.1699C3.84007 35.1699 2.73007 35.7599 2.12007 36.8199C1.21007 38.3999 1.75007 40.4299 3.33007 41.3399C4.91007 42.2499 6.94007 41.7099 7.85007 40.1299C8.76007 38.5499 8.22007 36.5199 6.64007 35.6099C6.12007 35.3099 5.55007 35.1699 4.99007 35.1699Z" fill="#AD935C"/>
<path d="M8.35004 44.07C8.69004 45.28 9.34004 46.38 10.26 47.24C10.73 47.68 11.29 48.14 11.92 48.32C12.63 48.52 13.35 48.21 13.57 47.5C13.75 46.92 13.57 46.3 13.33 45.77C13.08 45.2 12.74 44.65 12.35 44.16C11.6 43.21 10.19 41.89 8.89004 42.65C8.50004 42.87 8.29004 43.22 8.29004 43.66C8.29004 43.85 8.29004 44.03 8.36004 44.22C8.43004 44.4 8.54004 44.56 8.64004 44.73C8.83004 45.05 9.07004 45.33 9.28004 45.63C9.38004 45.78 9.47004 45.93 9.53004 46.09C9.59004 46.25 9.69004 46.4 9.70004 46.58C9.70004 46.77 9.99004 46.88 10.08 46.68C10.18 46.47 10.27 46.21 10.23 45.97C10.18 45.7 10.01 45.42 9.86004 45.2C9.71004 44.98 9.54004 44.78 9.41004 44.56C9.26004 44.32 9.27004 44.15 9.25004 43.88C9.25004 43.75 9.21004 43.88 9.29004 43.79C9.32004 43.75 9.34004 43.7 9.37004 43.66C9.40004 43.62 9.45004 43.57 9.51004 43.54C9.67004 43.46 9.87004 43.48 10.07 43.54C10.54 43.69 10.97 44.06 11.31 44.39C11.67 44.74 12 45.16 12.23 45.61C12.43 45.99 12.62 46.45 12.62 46.85C12.62 46.99 12.61 47.14 12.54 47.23C12.59 47.16 12.48 47.28 12.48 47.29C12.53 47.25 12.46 47.3 12.45 47.3C12.37 47.32 12.29 47.3 12.2 47.29C11.97 47.23 11.77 47.09 11.57 46.97C11.37 46.84 11.16 46.72 10.97 46.57C10.09 45.88 9.38004 44.93 9.01004 43.88C8.86004 43.47 8.22004 43.63 8.34004 44.06L8.35004 44.07Z" fill="#AD935C"/>
<path d="M2.22017 38.2199C2.28017 39.0899 2.61018 39.9199 3.20018 40.5599C3.78017 41.1799 4.90017 41.8499 5.64017 41.0499C6.26017 40.3799 5.87018 39.3499 5.44018 38.6899C5.17018 38.2699 4.86018 37.8699 4.51018 37.5199C4.16018 37.1699 3.80017 36.8199 3.29017 36.7699C2.73017 36.7199 2.27017 37.1099 2.10017 37.6199C2.01017 37.8799 2.02017 38.1599 2.06017 38.4299C2.08017 38.5599 2.10018 38.6899 2.15018 38.8099C2.22018 38.9999 2.34017 39.1099 2.52017 39.1999C2.65017 39.2699 2.86018 39.2499 2.93018 39.0899C2.97018 38.9999 3.02017 38.9099 3.04017 38.8099C3.06017 38.6899 3.04017 38.5799 3.00017 38.4699C2.96017 38.3199 2.92018 38.1199 2.93018 37.9899C2.93018 37.9199 3.00017 37.7699 3.01017 37.7499C3.05017 37.6999 3.06017 37.6899 3.10017 37.6599C3.14017 37.6399 3.16017 37.6299 3.23018 37.6399C3.44018 37.6699 3.69017 37.9299 3.83017 38.1199C4.06017 38.4199 4.28017 38.7299 4.48018 39.0599C4.57017 39.2099 4.67018 39.3599 4.75017 39.5199C4.78017 39.5799 4.81018 39.6299 4.84018 39.6899C4.84018 39.6999 4.88018 39.7799 4.84018 39.6999C4.86018 39.7499 4.87017 39.7899 4.89017 39.8399C4.91017 39.8999 4.93018 39.9599 4.94018 40.0299C4.94018 40.0599 4.95018 40.0899 4.96018 40.1199C4.95018 40.0299 4.96018 40.1099 4.96018 40.1199C4.96018 40.1499 4.96018 40.3199 4.96018 40.2099C4.96018 40.2399 4.95018 40.2699 4.94018 40.2899C4.93018 40.3899 4.98017 40.2499 4.93017 40.3299C4.92017 40.3499 4.90017 40.3799 4.89017 40.3999C4.95017 40.3899 4.90017 40.3999 4.87017 40.3999C4.74017 40.4799 4.90018 40.3999 4.82018 40.4199C4.74018 40.4399 4.88018 40.4199 4.80018 40.4199C4.77018 40.4199 4.73017 40.4199 4.70017 40.4199C4.62017 40.4199 4.75017 40.4299 4.67018 40.4199C4.62018 40.4099 4.56018 40.3899 4.51018 40.3699C4.27018 40.2799 4.02017 40.0799 3.82017 39.8899C3.32017 39.3999 2.96017 38.7999 2.82017 38.1099C2.75017 37.7899 2.21017 37.8499 2.24017 38.1899L2.22017 38.2199Z" fill="#AD935C"/>
<path d="M15.3201 47.5199C16.5801 46.6199 17.6201 45.4099 18.2401 43.9899C18.5501 43.2899 18.7801 42.5699 18.9101 41.8099C19.0401 41.0299 19.1601 40.1999 18.8501 39.4599C18.7601 39.2299 18.3601 39.1499 18.3001 39.4599C18.1701 40.1499 18.2201 40.8399 18.1201 41.5399C18.0201 42.2599 17.8201 42.9699 17.5401 43.6399C16.9701 44.9799 16.1101 46.1599 14.9701 47.0699C14.7201 47.2699 15.0501 47.7099 15.3201 47.5199Z" fill="#AD935C"/>
<path d="M15.0898 45.42C16.1698 44.36 16.9198 43.07 17.3398 41.63C17.5398 40.92 17.6598 40.18 17.6898 39.44C17.7098 39.08 17.6898 38.72 17.6698 38.36C17.6398 37.94 17.5598 37.68 17.2898 37.35C17.1598 37.19 16.9298 37.3 16.8698 37.46C16.6598 38.08 16.8398 38.74 16.8198 39.38C16.7998 40.07 16.6998 40.74 16.5298 41.41C16.1898 42.72 15.5498 43.99 14.6998 45.04C14.4798 45.31 14.8298 45.68 15.0898 45.43V45.42Z" fill="#AD935C"/>
<path d="M15.0901 42.2201C15.6301 41.5201 16.0901 40.6801 16.2701 39.8101C16.3601 39.3701 16.4101 38.9201 16.4101 38.4701C16.4101 38.2301 16.3901 37.9901 16.3601 37.7501C16.3201 37.4901 16.3001 37.2301 16.0901 37.0501C15.9201 36.9101 15.6001 36.8901 15.4901 37.1301C15.3101 37.5201 15.4901 38.0101 15.5201 38.4301C15.5501 38.8301 15.5401 39.2401 15.4901 39.6401C15.3801 40.4801 15.1801 41.2701 14.7501 42.0101C14.6201 42.2401 14.9401 42.4101 15.1001 42.2101L15.0901 42.2201Z" fill="#AD935C"/>
<path d="M14.2598 40.72C14.4498 40.03 14.5498 39.31 14.5698 38.6C14.5698 38.25 14.5698 37.9 14.5298 37.55C14.5098 37.36 14.4798 37.18 14.4298 37C14.3998 36.89 14.3798 36.8 14.2998 36.72C14.2298 36.65 14.1698 36.61 14.1198 36.52C14.0198 36.33 13.7098 36.42 13.7098 36.63C13.7098 36.72 13.7098 36.7 13.6698 36.8C13.6198 36.9 13.6098 36.99 13.6298 37.1C13.6598 37.27 13.6798 37.45 13.7098 37.62C13.7698 37.93 13.7998 38.24 13.8198 38.56C13.8598 39.23 13.8198 39.91 13.6998 40.57C13.6298 40.92 14.1498 41.08 14.2498 40.72H14.2598Z" fill="#AD935C"/>
<path d="M13.1902 38.55C13.1402 38.32 13.1102 38.08 13.0502 37.86C12.9902 37.63 12.9102 37.41 12.8502 37.18C12.8102 37.05 12.6902 36.97 12.5602 36.99C12.4402 37.01 12.3202 37.12 12.3302 37.25C12.3602 37.5 12.3802 37.74 12.4102 37.99C12.4402 38.24 12.5102 38.48 12.5602 38.73C12.6002 38.9 12.8002 39.01 12.9602 38.96C13.1402 38.9 13.2202 38.74 13.1902 38.56V38.55Z" fill="#AD935C"/>
<path d="M7.70002 38.43C8.03002 38.14 8.33002 37.83 8.50002 37.42C8.66002 37.03 8.74002 36.59 8.68002 36.16C8.64003 35.86 8.59002 35.5 8.29002 35.34C8.15002 35.26 7.95002 35.24 7.82002 35.34C7.68002 35.44 7.65002 35.6 7.63002 35.76C7.61002 35.98 7.72002 36.22 7.76002 36.44C7.77002 36.51 7.76002 36.36 7.76002 36.43C7.76002 36.45 7.76002 36.47 7.76002 36.49C7.76002 36.54 7.77002 36.59 7.77002 36.64C7.77002 36.74 7.77002 36.84 7.77002 36.94C7.77002 36.97 7.77002 36.99 7.77002 37.02C7.76002 37.14 7.78002 36.97 7.77002 37.04C7.76002 37.1 7.75002 37.15 7.74002 37.21C7.71002 37.32 7.69002 37.43 7.65002 37.54C7.59002 37.74 7.51002 37.92 7.36002 38.07C7.14002 38.3 7.47002 38.61 7.70002 38.41V38.43Z" fill="#AD935C"/>
<path d="M7.00977 37.02C7.26977 36.66 7.33977 36.19 7.24977 35.76C7.21977 35.61 7.13977 35.47 7.00977 35.38C6.90977 35.32 6.75977 35.31 6.66977 35.38C6.57977 35.45 6.53977 35.54 6.51977 35.65C6.49977 35.77 6.54977 35.9 6.56977 36.03C6.57977 36.09 6.56977 35.95 6.56977 36.02C6.56977 36.04 6.56977 36.07 6.56977 36.09C6.56977 36.14 6.56977 36.18 6.56977 36.23C6.56977 36.25 6.56977 36.29 6.56977 36.3C6.56977 36.3 6.57977 36.21 6.56977 36.27C6.56977 36.28 6.56977 36.3 6.56977 36.31C6.56977 36.36 6.54977 36.41 6.52977 36.46C6.52977 36.48 6.50977 36.5 6.50977 36.53C6.48977 36.58 6.50977 36.51 6.51977 36.5C6.51977 36.51 6.50977 36.52 6.49977 36.54C6.47977 36.59 6.44977 36.64 6.41977 36.68C6.31977 36.83 6.38977 37.06 6.53977 37.14C6.70977 37.23 6.88977 37.17 6.99977 37.02H7.00977Z" fill="#AD935C"/>
<path d="M6.10976 36.09C6.21976 35.85 6.28976 35.59 6.27976 35.33C6.27976 35.25 6.26976 35.17 6.24976 35.09C6.23976 35 6.20976 34.94 6.17976 34.86C6.09976 34.67 5.92976 34.47 5.69976 34.49C5.74976 34.5 5.80976 34.52 5.85976 34.53C5.79976 34.5 5.73976 34.48 5.66976 34.47C5.60976 34.47 5.53976 34.5 5.48976 34.53C5.43976 34.57 5.39976 34.62 5.37976 34.68C5.36976 34.72 5.36976 34.76 5.36976 34.8C5.37976 34.75 5.39976 34.69 5.40976 34.64C5.28976 34.8 5.34976 34.98 5.38976 35.16C5.40976 35.25 5.43976 35.34 5.44976 35.43C5.44976 35.39 5.44976 35.36 5.43976 35.32C5.44976 35.42 5.44976 35.52 5.43976 35.63C5.43976 35.59 5.43976 35.56 5.44976 35.52C5.43976 35.61 5.41976 35.7 5.37976 35.78C5.34976 35.87 5.37976 36.01 5.41976 36.08C5.46976 36.15 5.52976 36.21 5.60976 36.24C5.77976 36.31 6.01976 36.26 6.09976 36.08L6.10976 36.09Z" fill="#AD935C"/>
<path d="M114.76 86.83C114.36 86.83 113.99 86.62 113.79 86.27L109.5 78.79C109.3 78.45 109.3 78.02 109.5 77.68L113.79 70.2C114.19 69.51 115.33 69.51 115.73 70.2L120.02 77.68C120.22 78.03 120.22 78.45 120.02 78.79L115.73 86.27C115.53 86.62 115.16 86.83 114.76 86.83ZM111.76 78.23L114.76 83.46L117.76 78.23L114.76 73L111.76 78.23Z" fill="#AD935C"/>
<path d="M113.03 79.23C112.68 78.61 112.68 77.85 113.03 77.24C113.8 75.9 115.73 75.9 116.5 77.24C116.85 77.86 116.85 78.62 116.5 79.23C115.73 80.57 113.8 80.57 113.03 79.23Z" fill="#AD935C"/>
<path d="M93.5701 86.74C93.2301 86.74 92.9101 86.59 92.7001 86.32L87.3201 79.59C87.0701 79.28 87.0101 78.86 87.1501 78.49L90.2501 70.45C90.3901 70.08 90.7301 69.81 91.1201 69.75C91.5101 69.69 91.9101 69.84 92.1601 70.16L97.5401 76.89C97.7901 77.2 97.8501 77.62 97.7101 77.99L94.6101 86.03C94.4701 86.4 94.1301 86.67 93.7401 86.73C93.6801 86.73 93.6301 86.74 93.5701 86.74ZM89.4601 78.69L93.2201 83.4L95.3901 77.77L91.6301 73.06L89.4601 78.69Z" fill="#AD935C"/>
<path d="M90.8598 79.48C90.4198 78.92 90.2998 78.17 90.5598 77.51C91.1198 76.07 93.0298 75.77 93.9898 76.98C94.4298 77.54 94.5498 78.29 94.2898 78.95C93.7298 80.39 91.8198 80.69 90.8598 79.48Z" fill="#AD935C"/>
<path d="M72.1498 88.45C71.8798 88.45 71.6098 88.35 71.4098 88.17L64.9698 82.4301C64.6698 82.1701 64.5398 81.7601 64.6198 81.3701L66.3298 72.92C66.4098 72.53 66.6898 72.2101 67.0698 72.0801C67.4498 71.9501 67.8698 72.04 68.1698 72.31L74.6098 78.0501C74.9098 78.3101 75.0398 78.7201 74.9598 79.1101L73.2498 87.56C73.1698 87.95 72.8898 88.2701 72.5098 88.4001C72.3898 88.4401 72.2798 88.4601 72.1598 88.4601L72.1498 88.45ZM66.9398 81.1901L71.4398 85.2L72.6298 79.2901L68.1298 75.28L66.9398 81.1901Z" fill="#AD935C"/>
<path d="M68.4598 81.73C67.9298 81.26 67.6898 80.54 67.8298 79.84C68.1398 78.32 69.9698 77.71 71.1198 78.74C71.6498 79.21 71.8898 79.93 71.7498 80.63C71.4398 82.15 69.6098 82.76 68.4598 81.73Z" fill="#AD935C"/>
<path d="M135.96 86.7401C135.9 86.7401 135.85 86.7401 135.79 86.7301C135.39 86.6701 135.06 86.4001 134.92 86.0301L131.82 77.9901C131.68 77.6201 131.74 77.2001 131.99 76.8901L137.37 70.1601C137.62 69.8501 138.02 69.7001 138.41 69.7501C138.81 69.8101 139.14 70.0801 139.28 70.4501L142.38 78.4901C142.52 78.8601 142.46 79.2801 142.21 79.5901L136.83 86.3201C136.62 86.5901 136.29 86.7401 135.96 86.7401ZM134.14 77.7801L136.31 83.4101L140.07 78.7001L137.9 73.0701L134.14 77.7801Z" fill="#AD935C"/>
<path d="M138.67 79.48C139.11 78.92 139.23 78.17 138.97 77.51C138.41 76.07 136.5 75.77 135.54 76.98C135.1 77.54 134.98 78.29 135.24 78.95C135.8 80.39 137.71 80.69 138.67 79.48Z" fill="#AD935C"/>
<path d="M157.38 88.45C157.26 88.45 157.14 88.43 157.03 88.39C156.65 88.26 156.37 87.94 156.29 87.55L154.58 79.1C154.5 78.71 154.64 78.31 154.93 78.04L161.37 72.3C161.67 72.03 162.09 71.95 162.47 72.07C162.85 72.2 163.13 72.52 163.21 72.91L164.92 81.36C165 81.75 164.86 82.15 164.57 82.42L158.13 88.16C157.92 88.34 157.66 88.44 157.39 88.44L157.38 88.45ZM156.89 79.29L158.08 85.2L162.58 81.19L161.39 75.28L156.89 79.29Z" fill="#AD935C"/>
<path d="M161.07 81.73C161.6 81.26 161.84 80.54 161.7 79.84C161.39 78.32 159.56 77.71 158.41 78.74C157.88 79.21 157.64 79.93 157.78 80.63C158.09 82.15 159.92 82.76 161.07 81.73Z" fill="#AD935C"/>
<path d="M84.5098 26.65C86.4298 28.81 88.7098 30.64 91.2798 31.97C92.5298 32.62 93.8398 33.16 95.1798 33.59C95.8898 33.81 96.5998 34.01 97.3298 34.16C98.0198 34.31 98.8898 34.59 99.5798 34.36C100.35 34.1 100.48 33.11 99.7998 32.66C99.2498 32.3 98.4998 32.32 97.8698 32.2C97.2198 32.08 96.5698 31.92 95.9298 31.74C94.6198 31.37 93.3398 30.89 92.1198 30.28C89.6998 29.08 87.4698 27.5 85.5998 25.55C84.9098 24.83 83.8598 25.9 84.5098 26.64V26.65Z" fill="#AD935C"/>
<path d="M84.2702 25.95C81.6202 30.48 78.0302 34.38 73.4602 37.01C72.2102 37.73 73.3402 39.67 74.5902 38.94C79.3802 36.13 83.5102 31.94 85.8102 26.85C86.2702 25.83 84.8602 24.94 84.2702 25.95Z" fill="#AD935C"/>
<path d="M53.1499 43.72C48.0499 44.93 42.2899 43.65 38.3899 40.13C37.7499 39.55 36.4699 40.1 36.8099 41.05C37.4399 42.79 38.2299 44.46 38.8799 46.19C39.1899 47 39.5099 47.81 39.8099 48.63C40.1299 49.52 40.6199 50.59 40.7099 51.53C40.8299 52.69 42.4899 52.07 41.9499 51.19C41.4699 50.42 41.1899 49.35 40.9099 48.48C40.6299 47.61 40.3899 46.72 40.1199 45.84C39.5699 44.09 39.1899 42.29 38.6399 40.54C38.1099 40.85 37.5899 41.15 37.0599 41.46C39.2499 43.44 41.9299 44.77 44.8299 45.35C47.7799 45.93 50.5999 45.67 53.3799 44.53C53.8699 44.33 53.6999 43.59 53.1599 43.72H53.1499Z" fill="#AD935C"/>
<path d="M40.38 43.03C40.23 43.46 40.07 43.89 39.92 44.33C39.77 44.76 39.6 45.19 39.52 45.64C39.48 45.87 39.8 46.05 39.93 45.81C40.15 45.39 40.29 44.94 40.44 44.49C40.59 44.05 40.74 43.6 40.88 43.16C40.92 43.03 40.83 42.88 40.7 42.84C40.56 42.8 40.43 42.89 40.38 43.02V43.03Z" fill="#AD935C"/>
<path d="M41.6098 43.37C41.2798 44.1 40.9798 44.84 40.7198 45.6C40.5898 45.97 40.4698 46.33 40.3498 46.71C40.2298 47.1 40.0798 47.5 40.0898 47.91C40.0898 48.15 40.4298 48.25 40.5498 48.03C40.7398 47.69 40.8098 47.31 40.9198 46.94C41.0298 46.55 41.1398 46.17 41.2698 45.79C41.5098 45.04 41.7898 44.3 42.0998 43.57C42.2098 43.3 41.7398 43.1 41.6198 43.37H41.6098Z" fill="#AD935C"/>
<path d="M42.81 43.97C42.35 44.81 41.94 45.68 41.57 46.56C41.39 47 41.22 47.44 41.06 47.89C40.91 48.33 40.7 48.83 40.67 49.3C40.65 49.63 41.14 49.76 41.29 49.47C41.49 49.08 41.58 48.6 41.71 48.18C41.85 47.73 42 47.28 42.17 46.84C42.5 45.96 42.87 45.1 43.3 44.27C43.46 43.95 42.99 43.66 42.81 43.98V43.97Z" fill="#AD935C"/>
<path d="M44.1302 44.68C43.5102 45.67 42.9702 46.69 42.5202 47.76C42.3002 48.29 42.0902 48.83 41.9102 49.38C41.7302 49.92 41.4902 50.51 41.4702 51.09C41.4502 51.56 42.1302 51.54 42.1902 51.09C42.2002 50.99 42.2102 50.9 42.2202 50.81C42.2602 50.5 41.8302 50.46 41.6902 50.67C41.6302 50.75 41.5702 50.83 41.5202 50.92C41.7302 51.04 41.9302 51.16 42.1402 51.28C42.3902 50.78 42.4802 50.19 42.6402 49.65C42.8002 49.12 42.9802 48.59 43.1702 48.07C43.5702 47 44.0202 45.95 44.5302 44.93C44.6702 44.66 44.2902 44.43 44.1202 44.69L44.1302 44.68Z" fill="#AD935C"/>
<path d="M45.8401 44.13C45.3401 45.15 44.8801 46.19 44.4501 47.25C44.2401 47.77 44.0301 48.3 43.8401 48.83C43.6401 49.37 43.4001 49.92 43.2801 50.49C43.2501 50.62 43.2801 50.77 43.3801 50.86C43.4601 50.93 43.5301 50.98 43.6501 50.97C43.7701 50.96 43.9201 50.91 43.9801 50.78C44.2101 50.27 44.3501 49.73 44.5301 49.21C44.7101 48.68 44.9101 48.15 45.1101 47.62C45.5201 46.56 45.9601 45.52 46.4401 44.49C46.6301 44.09 46.0401 43.74 45.8401 44.14V44.13Z" fill="#AD935C"/>
<path d="M47.3101 44.4701C46.8601 45.4101 46.4501 46.3801 46.0901 47.3601C45.9101 47.8501 45.7501 48.3601 45.6001 48.8601C45.4701 49.3101 45.1701 49.9001 45.4501 50.3301C45.5301 50.4501 45.7001 50.5101 45.8301 50.4301C46.0901 50.2701 46.1601 50.0801 46.2201 49.7901C46.2801 49.5501 46.3301 49.3101 46.4001 49.0701C46.5301 48.5801 46.6701 48.0901 46.8101 47.6001C47.1001 46.6101 47.4401 45.6301 47.8301 44.6801C47.9501 44.3801 47.4501 44.1701 47.3101 44.4601V44.4701Z" fill="#AD935C"/>
<path d="M49.4298 44.83C49.0998 45.6 48.7698 46.36 48.4498 47.13C48.2898 47.51 48.1398 47.91 47.9898 48.29C47.8398 48.68 47.5998 49.09 47.6598 49.51C47.6998 49.83 48.1198 49.85 48.3198 49.68C48.4898 49.53 48.5598 49.31 48.6298 49.1C48.6998 48.9 48.7698 48.71 48.8398 48.51C48.9698 48.13 49.1098 47.76 49.2398 47.38C49.4998 46.61 49.7398 45.83 49.9898 45.06C50.0998 44.73 49.5598 44.49 49.4198 44.82L49.4298 44.83Z" fill="#AD935C"/>
<path d="M50.8002 44.94C50.6302 45.4 50.4402 45.85 50.2802 46.31C50.2002 46.54 50.1302 46.76 50.0502 46.99C49.9602 47.24 49.8502 47.49 49.8302 47.76C49.8002 48.18 50.4202 48.33 50.6102 47.97C50.7302 47.74 50.7602 47.48 50.8202 47.23C50.8802 46.99 50.9302 46.75 50.9902 46.51C51.1002 46.04 51.1802 45.55 51.2702 45.08C51.3302 44.76 50.9002 44.65 50.7902 44.95L50.8002 44.94Z" fill="#AD935C"/>
<path d="M86.4201 27.56C85.2501 29.7 83.9701 31.78 82.5101 33.74C81.7901 34.71 81.0201 35.65 80.2201 36.56C79.4001 37.5 78.4201 38.32 77.6401 39.29C77.3301 39.67 77.7401 40.37 78.2101 40.03C79.2101 39.31 80.0601 38.28 80.8801 37.36C81.7201 36.41 82.5001 35.43 83.2301 34.4C84.7001 32.33 85.9501 30.13 86.9201 27.78C87.0401 27.49 86.5701 27.31 86.4301 27.57L86.4201 27.56Z" fill="#AD935C"/>
<path d="M87.9798 28.64C86.9798 30.65 85.8398 32.56 84.5898 34.42C83.9598 35.36 83.2898 36.27 82.5898 37.16C82.2498 37.59 81.8998 38.02 81.5498 38.44C81.2398 38.81 80.7898 39.14 80.7798 39.65C80.7798 39.88 80.9898 40 81.1898 39.97C81.6598 39.9 81.9498 39.36 82.2398 39.01C82.5898 38.58 82.9298 38.14 83.2598 37.69C83.9398 36.78 84.5898 35.85 85.2098 34.9C86.4398 32.99 87.4998 30.98 88.4398 28.91C88.5798 28.6 88.1298 28.33 87.9798 28.64Z" fill="#AD935C"/>
<path d="M89.6199 30.16C88.7299 31.52 87.8099 32.86 86.8799 34.19C86.4199 34.85 85.9599 35.5 85.4899 36.14C85.0099 36.79 84.4399 37.44 84.0499 38.15C83.8199 38.58 84.3799 39.04 84.7399 38.68C85.2899 38.11 85.7199 37.37 86.1699 36.72C86.6399 36.04 87.0899 35.36 87.5499 34.67C88.4499 33.29 89.3099 31.88 90.1399 30.46C90.3299 30.13 89.8399 29.85 89.6299 30.16H89.6199Z" fill="#AD935C"/>
<path d="M91.2501 30.72C90.4301 31.93 89.6101 33.14 88.7901 34.34C88.3901 34.93 88.0001 35.54 87.6101 36.14C87.2201 36.74 86.7501 37.34 86.4801 38.01C86.3201 38.39 86.9001 38.69 87.1601 38.41C87.6301 37.9 87.9601 37.24 88.3301 36.65C88.7201 36.02 89.1201 35.4 89.5001 34.76C90.2501 33.51 90.9901 32.26 91.7401 31.01C91.9301 30.69 91.4501 30.42 91.2501 30.72Z" fill="#AD935C"/>
<path d="M93.2099 31.26C92.4899 32.37 91.7699 33.48 91.0499 34.6C90.6999 35.15 90.3599 35.7 90.0099 36.25C89.6599 36.81 89.2599 37.37 89.0099 37.98C88.8399 38.41 89.4899 38.77 89.7799 38.43C90.2099 37.93 90.5199 37.31 90.8599 36.74C91.1899 36.18 91.5299 35.62 91.8499 35.06L93.8099 31.61C94.0299 31.22 93.4499 30.88 93.2099 31.26Z" fill="#AD935C"/>
<path d="M94.6598 32.2299C94.1298 33.0099 93.5998 33.7999 93.0798 34.5799C92.8198 34.9599 92.5798 35.3399 92.3298 35.7299C92.1998 35.9399 92.0698 36.1399 91.9398 36.3499C91.7998 36.5699 91.6498 36.8499 91.7498 37.1199C91.8198 37.2799 91.9598 37.4499 92.1598 37.4299C92.7098 37.3799 92.9298 36.7599 93.1798 36.3299C93.4198 35.9199 93.6498 35.5099 93.8798 35.0999C94.3398 34.2599 94.7998 33.4199 95.2598 32.5799C95.4698 32.1899 94.9098 31.8699 94.6598 32.2299Z" fill="#AD935C"/>
<path d="M96.04 33.02C95.65 33.62 95.25 34.22 94.86 34.81C94.46 35.41 93.97 36.01 93.76 36.7C93.63 37.14 94.19 37.44 94.51 37.14C94.79 36.88 94.98 36.57 95.17 36.24C95.35 35.93 95.53 35.62 95.71 35.31C96.07 34.69 96.43 34.07 96.78 33.45C97.06 32.97 96.34 32.56 96.04 33.02Z" fill="#AD935C"/>
<path d="M88.1799 24.91C88.5799 27.02 87.1999 29.05 85.0899 29.45C82.9799 29.85 80.9499 28.47 80.5499 26.36C80.1499 24.25 81.5299 22.22 83.6399 21.82C85.7499 21.42 87.7799 22.8 88.1799 24.91Z" fill="#AD935C"/>
<path d="M85.72 19.9C85.97 21.21 85.11 22.47 83.8 22.71C82.49 22.96 81.23 22.1 80.99 20.79C80.74 19.48 81.6 18.22 82.91 17.98C84.22 17.73 85.48 18.59 85.72 19.9Z" fill="#AD935C"/>
<path d="M82.3399 24.06C81.8599 24.84 81.6799 25.79 81.8499 26.69C81.8899 26.92 81.9899 27.19 82.2099 27.27C82.5199 27.39 82.8299 27.09 82.9999 26.81C83.3399 26.22 83.4999 25.52 83.4399 24.83C83.4199 24.61 83.3799 24.39 83.2599 24.2C83.1399 24.02 82.9199 23.89 82.6999 23.92C82.3599 23.97 82.2099 24.36 82.1399 24.7C82.0699 25.03 81.9899 25.42 81.6899 25.58" fill="#AD935C"/>
<path d="M82.5399 19.17C82.1699 19.59 81.9799 20.16 82.0299 20.71C82.0499 20.96 82.1599 21.25 82.3999 21.31C82.7299 21.4 82.9899 21.03 83.0999 20.71C83.2199 20.38 83.2999 20.03 83.3499 19.68C83.3799 19.44 83.3699 19.14 83.1699 19.01C83.0099 18.91 82.7899 18.95 82.6399 19.06C82.4899 19.17 82.3899 19.34 82.2899 19.5" fill="#AD935C"/>
<path d="M83.3501 28.16C85.0201 28.54 86.8701 27.97 88.0401 26.73L83.3501 28.16Z" fill="#AD935C"/>
<path d="M84.1401 27.2599C85.7501 27.3199 87.3701 26.5699 88.3701 25.3199L84.1401 27.2599Z" fill="#AD935C"/>
<path d="M85.52 26.09C86.5 25.98 87.42 25.44 88 24.64L85.52 26.09Z" fill="#AD935C"/>
<path d="M85.8101 25.12C86.5001 24.76 87.1101 24.22 87.5501 23.58L85.8101 25.12Z" fill="#AD935C"/>
<path d="M86.2798 23.88C86.4498 23.66 86.6098 23.45 86.7798 23.23L86.2798 23.88Z" fill="#AD935C"/>
<path d="M84.4199 21.38C84.9699 21.44 85.5499 21.1 85.7699 20.6L84.4199 21.38Z" fill="#AD935C"/>
<path d="M84.73 20.49C85 20.46 85.24 20.27 85.33 20.02L84.73 20.49Z" fill="#AD935C"/>
<path d="M84.79 19.71C85.02 19.64 85.2 19.44 85.25 19.21L84.79 19.71Z" fill="#AD935C"/>
<path d="M39.915 45.5321C41.7944 44.4912 42.4742 42.1238 41.4333 40.2444C40.3924 38.3651 38.025 37.6853 36.1456 38.7262C34.2662 39.7671 33.5865 42.1345 34.6274 44.0139C35.6683 45.8933 38.0357 46.573 39.915 45.5321Z" fill="#AD935C"/>
<path d="M36.79 36.3599C37.58 37.4299 37.34 38.9399 36.27 39.7299C35.2 40.5199 33.69 40.2799 32.9 39.2099C32.11 38.1399 32.35 36.6299 33.42 35.8399C34.49 35.0499 36 35.2899 36.79 36.3599Z" fill="#AD935C"/>
<path d="M35.5201 41.57C35.4201 42.48 35.6701 43.42 36.2101 44.16C36.3501 44.35 36.5501 44.55 36.7801 44.53C37.1101 44.51 37.2701 44.1 37.2901 43.77C37.3401 43.09 37.1801 42.39 36.8301 41.8C36.7201 41.61 36.5801 41.43 36.3901 41.31C36.2001 41.2 35.9501 41.17 35.7601 41.3C35.4801 41.49 35.5001 41.91 35.5901 42.24C35.6801 42.57 35.7701 42.95 35.5601 43.23" fill="#AD935C"/>
<path d="M33.6 37.07C33.44 37.61 33.52 38.2 33.8 38.69C33.93 38.91 34.15 39.12 34.39 39.07C34.72 39.01 34.8 38.57 34.76 38.23C34.72 37.88 34.65 37.53 34.54 37.19C34.46 36.96 34.33 36.69 34.08 36.66C33.89 36.63 33.71 36.77 33.62 36.94C33.53 37.11 33.51 37.3 33.5 37.49" fill="#AD935C"/>
<path d="M38.2002 44.84C39.8702 44.46 41.2902 43.16 41.8202 41.53L38.2002 44.84Z" fill="#AD935C"/>
<path d="M38.5298 43.68C40.0098 43.04 41.1498 41.67 41.5098 40.11L38.5298 43.68Z" fill="#AD935C"/>
<path d="M39.27 42.04C40.11 41.52 40.71 40.63 40.88 39.66L39.27 42.04Z" fill="#AD935C"/>
<path d="M39.1201 41.04C39.5901 40.41 39.9101 39.67 40.0301 38.9L39.1201 41.04Z" fill="#AD935C"/>
<path d="M39 39.71C39.06 39.44 39.12 39.17 39.17 38.91L39 39.71Z" fill="#AD935C"/>
<path d="M36.25 38.26C36.77 38.07 37.15 37.53 37.13 36.97L36.25 38.26Z" fill="#AD935C"/>
<path d="M36.1499 37.32C36.3799 37.18 36.5199 36.91 36.4899 36.64L36.1499 37.32Z" fill="#AD935C"/>
<path d="M35.8701 36.5899C36.0401 36.4299 36.1201 36.1699 36.0701 35.9399L35.8701 36.5899Z" fill="#AD935C"/>
<path d="M143.74 25.57C141.87 27.52 139.64 29.1 137.22 30.3C136.03 30.89 134.8 31.36 133.52 31.73C132.88 31.91 132.24 32.07 131.58 32.2C130.91 32.33 130.11 32.3 129.53 32.68C128.85 33.12 128.98 34.12 129.75 34.38C130.41 34.6 131.22 34.34 131.88 34.2C132.61 34.05 133.32 33.86 134.03 33.64C135.41 33.21 136.76 32.65 138.05 31.99C140.62 30.66 142.9 28.83 144.82 26.67C145.47 25.94 144.42 24.86 143.73 25.58L143.74 25.57Z" fill="#AD935C"/>
<path d="M143.53 26.85C145.82 31.94 149.96 36.13 154.75 38.94C155.99 39.67 157.13 37.73 155.88 37.01C151.31 34.38 147.73 30.4801 145.07 25.95C144.48 24.94 143.07 25.82 143.53 26.85Z" fill="#AD935C"/>
<path d="M175.97 44.53C178.75 45.67 181.57 45.93 184.52 45.35C187.42 44.78 190.09 43.44 192.29 41.46C191.76 41.15 191.24 40.85 190.71 40.54C190.15 42.29 189.77 44.09 189.23 45.84C188.97 46.67 188.74 47.5 188.48 48.33C188.19 49.25 187.91 50.37 187.4 51.19C186.86 52.06 188.52 52.69 188.64 51.53C188.73 50.64 189.19 49.61 189.49 48.77C189.8 47.9 190.15 47.05 190.47 46.19C191.12 44.46 191.91 42.79 192.54 41.05C192.88 40.1 191.61 39.55 190.96 40.13C187.05 43.65 181.3 44.94 176.2 43.72C175.66 43.59 175.49 44.33 175.98 44.53H175.97Z" fill="#AD935C"/>
<path d="M188.45 43.17C188.6 43.61 188.75 44.0601 188.89 44.5001C189.04 44.9501 189.18 45.4001 189.4 45.8201C189.53 46.0601 189.85 45.8801 189.81 45.6501C189.73 45.1901 189.56 44.7701 189.41 44.3401C189.26 43.9101 189.1 43.4801 188.95 43.0401C188.9 42.9101 188.77 42.8201 188.63 42.8601C188.5 42.9001 188.41 43.0401 188.45 43.1801V43.17Z" fill="#AD935C"/>
<path d="M187.24 43.57C187.55 44.3 187.82 45.04 188.07 45.79C188.19 46.16 188.3 46.53 188.41 46.9C188.52 47.28 188.59 47.68 188.79 48.03C188.91 48.25 189.24 48.14 189.25 47.91C189.25 47.5 189.11 47.1 188.99 46.71C188.88 46.34 188.75 45.97 188.62 45.6C188.35 44.85 188.05 44.1 187.73 43.37C187.61 43.1 187.14 43.3 187.25 43.57H187.24Z" fill="#AD935C"/>
<path d="M186.04 44.26C186.46 45.1 186.84 45.95 187.17 46.83C187.33 47.26 187.47 47.69 187.61 48.13C187.75 48.57 187.83 49.07 188.05 49.47C188.2 49.76 188.69 49.63 188.67 49.3C188.64 48.83 188.44 48.34 188.28 47.89C188.13 47.44 187.95 47 187.77 46.56C187.4 45.67 186.99 44.81 186.53 43.97C186.35 43.65 185.88 43.93 186.04 44.26Z" fill="#AD935C"/>
<path d="M184.8 44.92C185.31 45.94 185.77 47 186.16 48.06C186.35 48.58 186.53 49.11 186.69 49.64C186.85 50.18 186.95 50.77 187.19 51.27C187.4 51.15 187.6 51.03 187.81 50.91C187.75 50.83 187.69 50.75 187.64 50.66C187.5 50.46 187.07 50.49 187.11 50.8C187.12 50.89 187.13 50.99 187.14 51.08C187.19 51.53 187.87 51.55 187.86 51.08C187.84 50.52 187.61 49.95 187.44 49.43C187.25 48.87 187.04 48.31 186.81 47.76C186.36 46.68 185.82 45.67 185.2 44.68C185.04 44.42 184.66 44.65 184.79 44.92H184.8Z" fill="#AD935C"/>
<path d="M182.89 44.48C183.37 45.51 183.81 46.55 184.22 47.61C184.42 48.14 184.62 48.66 184.8 49.2C184.98 49.72 185.13 50.27 185.35 50.77C185.41 50.9 185.55 50.95 185.68 50.96C185.79 50.97 185.86 50.92 185.95 50.85C186.05 50.76 186.07 50.61 186.05 50.48C185.94 49.94 185.71 49.4 185.51 48.88C185.31 48.33 185.1 47.79 184.88 47.25C184.45 46.2 183.99 45.16 183.49 44.13C183.3 43.73 182.71 44.08 182.89 44.48Z" fill="#AD935C"/>
<path d="M181.51 44.69C181.9 45.65 182.24 46.62 182.53 47.61C182.67 48.1 182.82 48.59 182.94 49.08C183 49.32 183.06 49.56 183.12 49.8C183.19 50.09 183.25 50.28 183.51 50.44C183.64 50.52 183.81 50.47 183.89 50.34C184.16 49.91 183.87 49.32 183.74 48.87C183.59 48.36 183.43 47.86 183.25 47.37C182.89 46.39 182.48 45.42 182.03 44.48C181.89 44.19 181.39 44.4 181.51 44.7V44.69Z" fill="#AD935C"/>
<path d="M179.34 45.07C179.59 45.84 179.83 46.62 180.09 47.39C180.22 47.77 180.36 48.15 180.49 48.52C180.56 48.72 180.63 48.91 180.7 49.11C180.77 49.32 180.84 49.54 181.01 49.69C181.21 49.86 181.63 49.84 181.67 49.52C181.73 49.09 181.49 48.69 181.34 48.3C181.19 47.91 181.04 47.52 180.88 47.14C180.56 46.37 180.23 45.61 179.9 44.84C179.76 44.52 179.23 44.75 179.33 45.08L179.34 45.07Z" fill="#AD935C"/>
<path d="M178.05 45.07C178.14 45.55 178.23 46.03 178.33 46.5C178.38 46.73 178.44 46.96 178.49 47.2C178.55 47.46 178.58 47.73 178.71 47.96C178.9 48.32 179.52 48.16 179.49 47.75C179.47 47.49 179.36 47.25 179.28 47.01C179.2 46.78 179.12 46.54 179.04 46.31C178.88 45.85 178.7 45.4 178.52 44.94C178.41 44.64 177.98 44.75 178.04 45.07H178.05Z" fill="#AD935C"/>
<path d="M142.42 27.77C143.39 30.12 144.63 32.32 146.11 34.39C146.82 35.39 147.58 36.35 148.4 37.28C149.23 38.23 150.11 39.29 151.14 40.03C151.61 40.37 152.02 39.67 151.71 39.29C150.95 38.35 150 37.55 149.19 36.64C148.37 35.71 147.58 34.74 146.83 33.74C145.37 31.79 144.09 29.7 142.92 27.56C142.78 27.3 142.31 27.48 142.43 27.77H142.42Z" fill="#AD935C"/>
<path d="M140.9 28.91C141.83 30.98 142.89 32.99 144.13 34.9C144.73 35.82 145.36 36.73 146.02 37.61C146.35 38.05 146.69 38.49 147.04 38.93C147.34 39.3 147.65 39.89 148.15 39.97C148.36 40 148.57 39.89 148.56 39.65C148.56 39.17 148.15 38.86 147.86 38.52C147.5 38.1 147.15 37.67 146.81 37.24C146.09 36.33 145.4 35.39 144.75 34.42C143.5 32.56 142.36 30.64 141.36 28.64C141.21 28.33 140.76 28.6 140.9 28.91Z" fill="#AD935C"/>
<path d="M139.21 30.46C140.04 31.89 140.89 33.29 141.8 34.67C142.25 35.36 142.71 36.04 143.18 36.72C143.63 37.37 144.06 38.11 144.61 38.68C144.96 39.04 145.53 38.58 145.3 38.15C144.91 37.44 144.33 36.8 143.86 36.14C143.39 35.49 142.93 34.84 142.47 34.19C141.54 32.86 140.62 31.51 139.73 30.16C139.52 29.85 139.03 30.13 139.22 30.46H139.21Z" fill="#AD935C"/>
<path d="M137.59 31.01C138.34 32.26 139.08 33.51 139.83 34.76C140.2 35.38 140.58 35.98 140.96 36.59C141.34 37.2 141.68 37.88 142.17 38.41C142.43 38.69 143.01 38.4 142.85 38.01C142.59 37.37 142.14 36.79 141.76 36.2C141.36 35.58 140.96 34.95 140.54 34.34C139.72 33.13 138.9 31.92 138.08 30.72C137.88 30.42 137.4 30.69 137.59 31.01Z" fill="#AD935C"/>
<path d="M135.52 31.61L137.48 35.06C137.8 35.63 138.14 36.18 138.47 36.74C138.81 37.31 139.11 37.93 139.55 38.43C139.84 38.77 140.5 38.41 140.32 37.98C140.07 37.36 139.67 36.81 139.32 36.25C138.98 35.7 138.64 35.14 138.28 34.6C137.56 33.49 136.84 32.38 136.12 31.26C135.88 30.88 135.29 31.22 135.52 31.61Z" fill="#AD935C"/>
<path d="M134.08 32.57C134.54 33.41 135 34.25 135.46 35.09C135.69 35.5 135.92 35.91 136.16 36.32C136.41 36.74 136.63 37.37 137.18 37.42C137.38 37.44 137.52 37.27 137.59 37.11C137.7 36.84 137.55 36.56 137.4 36.34C137.27 36.13 137.14 35.93 137.01 35.72C136.76 35.33 136.52 34.95 136.26 34.57L134.68 32.22C134.43 31.85 133.87 32.17 134.08 32.57Z" fill="#AD935C"/>
<path d="M132.55 33.45C132.91 34.07 133.27 34.69 133.62 35.31C133.8 35.62 133.98 35.93 134.16 36.24C134.35 36.57 134.54 36.88 134.82 37.14C135.14 37.44 135.71 37.14 135.57 36.7C135.36 36 134.87 35.41 134.47 34.81C134.08 34.21 133.68 33.61 133.29 33.02C132.99 32.56 132.27 32.97 132.55 33.45Z" fill="#AD935C"/>
<path d="M141.15 24.91C140.75 27.02 142.14 29.05 144.24 29.45C146.35 29.85 148.38 28.47 148.78 26.36C149.18 24.25 147.79 22.22 145.69 21.82C143.58 21.42 141.55 22.8 141.15 24.91Z" fill="#AD935C"/>
<path d="M143.61 19.9C143.36 21.21 144.22 22.47 145.53 22.71C146.84 22.96 148.1 22.1 148.34 20.79C148.59 19.48 147.73 18.22 146.42 17.98C145.11 17.73 143.85 18.59 143.61 19.9Z" fill="#AD935C"/>
<path d="M146.99 24.06C147.47 24.84 147.65 25.79 147.48 26.69C147.44 26.92 147.35 27.19 147.12 27.27C146.81 27.39 146.5 27.09 146.33 26.81C145.99 26.22 145.83 25.52 145.89 24.83C145.91 24.61 145.95 24.39 146.07 24.2C146.19 24.02 146.41 23.89 146.63 23.92C146.97 23.97 147.12 24.36 147.19 24.7C147.26 25.03 147.34 25.42 147.64 25.58" fill="#AD935C"/>
<path d="M146.8 19.17C147.17 19.59 147.36 20.16 147.31 20.71C147.29 20.96 147.18 21.25 146.94 21.31C146.61 21.4 146.35 21.03 146.24 20.71C146.12 20.38 146.04 20.03 145.99 19.68C145.96 19.44 145.97 19.14 146.17 19.01C146.33 18.91 146.55 18.95 146.7 19.06C146.85 19.17 146.95 19.34 147.05 19.5" fill="#AD935C"/>
<path d="M145.98 28.16C144.31 28.54 142.46 27.97 141.29 26.73L145.98 28.16Z" fill="#AD935C"/>
<path d="M145.19 27.2599C143.58 27.3199 141.96 26.5699 140.96 25.3199L145.19 27.2599Z" fill="#AD935C"/>
<path d="M143.81 26.09C142.83 25.98 141.91 25.44 141.33 24.64L143.81 26.09Z" fill="#AD935C"/>
<path d="M143.52 25.12C142.83 24.76 142.22 24.22 141.78 23.58L143.52 25.12Z" fill="#AD935C"/>
<path d="M143.06 23.88C142.89 23.66 142.73 23.45 142.56 23.23L143.06 23.88Z" fill="#AD935C"/>
<path d="M144.92 21.38C144.37 21.44 143.79 21.1 143.57 20.6L144.92 21.38Z" fill="#AD935C"/>
<path d="M144.6 20.49C144.33 20.46 144.09 20.27 144 20.02L144.6 20.49Z" fill="#AD935C"/>
<path d="M144.54 19.71C144.31 19.64 144.13 19.44 144.08 19.21L144.54 19.71Z" fill="#AD935C"/>
<path d="M191.3 46.02C193.449 46.02 195.19 44.2784 195.19 42.13C195.19 39.9816 193.449 38.24 191.3 38.24C189.152 38.24 187.41 39.9816 187.41 42.13C187.41 44.2784 189.152 46.02 191.3 46.02Z" fill="#AD935C"/>
<path d="M192.54 36.3599C191.75 37.4299 191.99 38.9399 193.06 39.7299C194.13 40.5199 195.64 40.2799 196.43 39.2099C197.22 38.1399 196.98 36.6299 195.91 35.8399C194.84 35.0499 193.33 35.2899 192.54 36.3599Z" fill="#AD935C"/>
<path d="M193.81 41.57C193.91 42.48 193.66 43.42 193.12 44.16C192.98 44.35 192.78 44.55 192.55 44.53C192.22 44.51 192.06 44.1 192.04 43.77C191.99 43.09 192.15 42.39 192.5 41.8C192.61 41.61 192.75 41.43 192.94 41.31C193.13 41.2 193.38 41.17 193.56 41.3C193.84 41.49 193.82 41.91 193.73 42.24C193.64 42.57 193.55 42.95 193.76 43.23" fill="#AD935C"/>
<path d="M195.74 37.07C195.9 37.61 195.82 38.2 195.54 38.69C195.41 38.91 195.19 39.12 194.95 39.07C194.62 39.01 194.54 38.57 194.58 38.23C194.62 37.88 194.69 37.53 194.8 37.19C194.88 36.96 195.01 36.69 195.26 36.66C195.45 36.63 195.63 36.77 195.72 36.94C195.81 37.11 195.83 37.3 195.85 37.49" fill="#AD935C"/>
<path d="M191.13 44.84C189.46 44.46 188.04 43.16 187.51 41.53L191.13 44.84Z" fill="#AD935C"/>
<path d="M190.8 43.68C189.32 43.04 188.18 41.67 187.82 40.11L190.8 43.68Z" fill="#AD935C"/>
<path d="M190.07 42.04C189.23 41.52 188.63 40.63 188.46 39.66L190.07 42.04Z" fill="#AD935C"/>
<path d="M190.22 41.04C189.75 40.41 189.43 39.67 189.31 38.9L190.22 41.04Z" fill="#AD935C"/>
<path d="M190.33 39.71L190.16 38.91L190.33 39.71Z" fill="#AD935C"/>
<path d="M193.09 38.26C192.57 38.07 192.19 37.53 192.21 36.97L193.09 38.26Z" fill="#AD935C"/>
<path d="M193.18 37.32C192.95 37.18 192.81 36.91 192.84 36.64L193.18 37.32Z" fill="#AD935C"/>
<path d="M193.46 36.5899C193.29 36.4299 193.21 36.1699 193.26 35.9399L193.46 36.5899Z" fill="#AD935C"/>
<path d="M188.78 104.77C187.11 105.19 185.45 105.7 183.78 106.13C181.64 106.68 179.5 107.2 177.35 107.69C173.09 108.66 168.8 109.52 164.49 110.25C155.87 111.72 147.19 112.65 138.47 113.22C133.55 113.54 128.61 113.74 123.68 113.81C123.26 113.81 123.26 114.45 123.68 114.46C132.47 114.66 141.23 114.26 149.98 113.33C158.68 112.41 167.33 111.01 175.88 109.14C178.31 108.61 180.73 108.04 183.14 107.43C185.2 106.91 187.3 106.43 189.33 105.78C189.15 105.43 188.97 105.09 188.78 104.77Z" fill="#AD935C"/>
<path d="M186.78 102.23C185.87 102.48 184.97 102.78 184.08 103.02C182.45 103.47 180.82 103.89 179.19 104.3C176 105.1 172.79 105.82 169.56 106.47C163 107.8 156.38 108.82 149.73 109.58C145.98 110.01 142.22 110.43 138.45 110.76C138.03 110.8 138.01 111.45 138.45 111.43C151.9 110.99 165.25 108.83 178.33 105.73C180.13 105.3 181.92 104.86 183.7 104.39C185.03 104.04 186.45 103.76 187.78 103.31C187.47 102.92 187.14 102.55 186.77 102.22L186.78 102.23Z" fill="#AD935C"/>
<path d="M183.87 100.56C183.29 100.37 182.71 100.19 182.13 100.02C180.67 100.48 179.24 101.02 177.79 101.47C175.59 102.16 173.37 102.8 171.14 103.38C166.68 104.54 162.16 105.49 157.62 106.28C155.04 106.73 152.45 107.14 149.86 107.51C149.48 107.57 149.56 108.23 149.95 108.19C159.22 107.39 168.37 105.42 177.3 102.85C179.55 102.2 181.92 101.61 184.07 100.64C184 100.61 183.93 100.58 183.86 100.55L183.87 100.56Z" fill="#AD935C"/>
<path d="M177.64 98.64C176.83 98.9 176.01 99.16 175.19 99.41C173.16 100.03 171.12 100.61 169.07 101.15C165.02 102.21 160.93 103.19 156.82 103.98C156.47 104.05 156.55 104.66 156.91 104.61C161.08 104.06 165.2 103.36 169.29 102.35C171.31 101.85 173.32 101.32 175.31 100.72C176.31 100.42 177.3 100.11 178.29 99.79C178.78 99.63 179.28 99.48 179.77 99.3C179.06 99.09 178.35 98.86 177.65 98.63L177.64 98.64Z" fill="#AD935C"/>
<path d="M173.63 97.4C173.5 97.46 173.37 97.52 173.23 97.57C171.97 98.06 170.69 98.51 169.4 98.93C166.83 99.77 164.2 100.46 161.55 100.99C160.96 101.11 161.22 101.97 161.8 101.88C164.56 101.46 167.28 100.86 169.95 100.05C171.25 99.66 172.52 99.21 173.78 98.72C174.4 98.48 175.05 98.25 175.68 97.97C175.01 97.73 174.32 97.52 173.62 97.41L173.63 97.4Z" fill="#AD935C"/>
<path d="M169.23 96.97C169.12 96.95 169.01 96.91 168.9 96.86C168.8 96.9 168.7 96.93 168.6 96.97C167.05 97.53 165.49 98.09 163.95 98.67C163.4 98.88 163.61 99.76 164.2 99.57C165.8 99.06 167.39 98.53 168.98 98C169.79 97.73 170.6 97.47 171.41 97.19C170.68 97.14 169.95 97.09 169.23 96.96V96.97Z" fill="#AD935C"/>
<path d="M40.7502 104.77C42.4202 105.19 44.0802 105.7 45.7502 106.13C47.8902 106.68 50.0302 107.2 52.1802 107.69C56.4402 108.66 60.7302 109.52 65.0402 110.25C73.6602 111.72 82.3402 112.65 91.0602 113.22C95.9802 113.54 100.92 113.74 105.85 113.81C106.27 113.81 106.27 114.45 105.85 114.46C97.0602 114.66 88.3002 114.26 79.5502 113.33C70.8502 112.41 62.2002 111.01 53.6502 109.14C51.2202 108.61 48.8002 108.04 46.3902 107.43C44.3302 106.91 42.2302 106.43 40.2002 105.78C40.3802 105.43 40.5602 105.09 40.7502 104.77Z" fill="#AD935C"/>
<path d="M42.75 102.23C43.66 102.48 44.56 102.78 45.45 103.02C47.08 103.47 48.71 103.89 50.34 104.3C53.53 105.1 56.74 105.82 59.97 106.47C66.53 107.8 73.15 108.82 79.8 109.58C83.55 110.01 87.31 110.43 91.08 110.76C91.5 110.8 91.52 111.45 91.08 111.43C77.63 110.99 64.28 108.83 51.2 105.73C49.4 105.3 47.61 104.86 45.83 104.39C44.5 104.04 43.08 103.76 41.75 103.31C42.06 102.92 42.39 102.55 42.76 102.22L42.75 102.23Z" fill="#AD935C"/>
<path d="M45.66 100.56C46.24 100.37 46.82 100.19 47.4 100.02C48.86 100.48 50.29 101.02 51.74 101.47C53.94 102.16 56.16 102.8 58.39 103.38C62.85 104.54 67.37 105.49 71.91 106.28C74.49 106.73 77.08 107.14 79.67 107.51C80.05 107.57 79.97 108.23 79.58 108.19C70.31 107.39 61.16 105.42 52.23 102.85C49.98 102.2 47.61 101.61 45.46 100.64C45.53 100.61 45.6 100.58 45.67 100.55L45.66 100.56Z" fill="#AD935C"/>
<path d="M51.89 98.64C52.7 98.9 53.52 99.16 54.34 99.41C56.37 100.03 58.4 100.61 60.45 101.15C64.5 102.21 68.59 103.19 72.7 103.98C73.05 104.05 72.97 104.66 72.61 104.61C68.44 104.06 64.32 103.36 60.23 102.35C58.21 101.85 56.2 101.32 54.21 100.72C53.21 100.42 52.22 100.11 51.23 99.79C50.74 99.63 50.24 99.48 49.75 99.3C50.46 99.09 51.17 98.86 51.87 98.63L51.89 98.64Z" fill="#AD935C"/>
<path d="M55.9001 97.4C56.0301 97.46 56.1601 97.52 56.3001 97.57C57.5601 98.06 58.8401 98.51 60.1301 98.93C62.7001 99.77 65.3301 100.46 67.9801 100.99C68.5701 101.11 68.3101 101.97 67.7301 101.88C64.9701 101.46 62.2501 100.86 59.5801 100.05C58.2801 99.66 57.0101 99.21 55.7501 98.72C55.1301 98.48 54.4801 98.25 53.8501 97.97C54.5201 97.73 55.2101 97.52 55.9101 97.41L55.9001 97.4Z" fill="#AD935C"/>
<path d="M60.3001 96.97C60.4101 96.95 60.5201 96.91 60.6301 96.86C60.7301 96.9 60.8301 96.93 60.9301 96.97C62.4801 97.53 64.0401 98.09 65.5801 98.67C66.1301 98.88 65.9201 99.76 65.3301 99.57C63.7301 99.06 62.1401 98.53 60.5501 98C59.7401 97.73 58.9301 97.47 58.1201 97.19C58.8501 97.14 59.5801 97.09 60.3001 96.96V96.97Z" fill="#AD935C"/>
</g>
<defs>
<clipPath id="clip0_167_176">
<rect width="229.53" height="118.7" fill="white"/>
</clipPath>
</defs>
</svg>
