<svg width="80" height="80" viewBox="0 0 80 80" fill="none" xmlns="http://www.w3.org/2000/svg">
<path d="M68.4 30.5345C70.6751 28.3063 72 25.2623 72 22C72 15.3834 66.6172 10 60 10C57.8137 10 55.6628 10.6009 53.7773 11.7383C53.1472 12.1192 52.9441 12.9381 53.3242 13.5691C53.7044 14.2 54.5247 14.4011 55.155 14.0222C56.625 13.1355 58.2995 12.6667 60 12.6667C65.1458 12.6667 69.3333 16.8536 69.3333 22C69.3333 25.1692 67.7461 28.0905 65.082 29.8183C62.845 31.2858 60.0091 31.7089 57.4192 30.9713C56.7187 30.7694 55.9739 31.1783 55.7708 31.8866C55.5689 32.5948 55.9791 33.3325 56.6875 33.535C57.7656 33.8436 58.8801 33.9998 60 33.9998C62.0966 33.9998 64.1231 33.428 65.9223 32.3952C72.767 34.8753 77.3333 41.3377 77.3333 48.6666V55.3333H65.1751C64.2308 46.4277 58.628 38.6345 50.4556 34.9341C53.0562 32.2863 54.6666 28.6625 54.6666 24.6667C54.6667 16.5794 48.0872 10 40 10C31.9128 10 25.3333 16.5794 25.3333 24.6667C25.3333 28.6637 26.9445 32.2886 29.5466 34.9367C26.7962 36.1863 24.2455 37.9344 22.082 40.0855C17.9347 44.2447 15.4109 49.583 14.8119 55.3336H2.66672V48.6669C2.66672 44.0497 4.47016 39.6963 7.73969 36.413C9.53953 34.6245 11.7308 33.2602 14.0902 32.4027C15.8897 33.4312 17.9102 34 20 34C21.1198 34 22.2344 33.8438 23.3125 33.5352C24.0208 33.3327 24.4309 32.595 24.2292 31.8867C24.0261 31.1784 23.2812 30.7702 22.5808 30.9714C19.9922 31.7103 17.1577 31.2878 14.9116 29.8152C12.2541 28.0905 10.6667 25.1694 10.6667 22C10.6667 16.8536 14.8542 12.6667 20 12.6667C21.7005 12.6667 23.375 13.1355 24.845 14.0222C25.4778 14.4011 26.2942 14.198 26.6758 13.5691C27.0559 12.9383 26.8528 12.1192 26.2227 11.7383C24.3372 10.6009 22.1862 10 20 10C13.3828 10 8 15.3834 8 22C8 25.2598 9.32265 28.3014 11.5912 30.5277C9.47672 31.5106 7.52375 32.8677 5.85422 34.5261C2.07937 38.3177 0 43.3392 0 48.6667V56.6667C0 57.4031 0.596406 58 1.33328 58H14.6666V68.6667C14.6666 69.4031 15.263 70 15.9998 70H63.9998C64.7369 70 65.3331 69.403 65.3331 68.6667V58H78.6664C79.4034 58 79.9997 57.403 79.9997 56.6667V48.6667C80 40.7831 75.4184 33.77 68.4 30.5345ZM28 24.6667C28 18.0502 33.3828 12.6667 40 12.6667C46.6172 12.6667 52 18.0502 52 24.6667C52 31.2833 46.6172 36.6667 40 36.6667C33.3828 36.6667 28 31.2831 28 24.6667ZM62.6667 67.3333H17.3333V58C17.3333 51.9544 19.69 46.2611 23.9661 41.972C26.2187 39.7314 28.9497 37.9934 31.8777 36.8691C34.205 38.4233 36.9975 39.3333 40 39.3333C43.0075 39.3333 45.8048 38.4206 48.1344 36.8617C56.8497 40.2103 62.6667 48.6125 62.6667 58V67.3333Z" fill="#AD935C"/>
</svg>
